<svg height="127" viewBox="0 0 127 127" width="127" xmlns="http://www.w3.org/2000/svg"><path d="m110.810772 33.1058291v63.1672712l-21.2261263 12.2544547v-39.176399l-23.9826423 13.8471183v-23.9913051zm-93.810772.0415816 45.136867 26.0595585v23.5577299l-.375101.2170042-23.6079744-13.6305473v39.134818l-21.1537916-12.2128737zm46.2197221 60.7581351v1.9677644l-21.6007941 12.4710258v-1.967764zm22.8997872-18.5527735v32.9504157l-21.6007942-12.4714595v-8.0074971zm-22.8997872 15.1309513v1.9214182l-21.6007941 12.4710262v-1.920985zm-.6609747-3.0410903.6315211.3651387.0294536-.0506776v1.2262252l-21.6007941 12.4714594v-1.9218516zm-2.9631248-1.710478 1.6641317.9607091-19.6408263 11.3400921v-1.9218513zm-2.9631248-1.7109111 1.6641318.9602759-16.6777016 9.629181v-1.9214181zm-2.9631248-1.7109111 1.6636986.9607091-13.7141436 7.9178367v-1.9214182zm-2.9635579-1.7109111 1.6641318.9607091-10.7510189 6.2073587v-1.9214181zm-2.9635579-1.7109111 1.6641317.9607091-7.7874609 4.4964476v-1.9218513zm-2.963558-1.7109111 1.6641318.960709-4.823903 2.7855366v-1.9218513zm-3.1597712-1.8248275 1.8607782 1.0746254-1.8607782 1.0741923zm46.4276303-57.3527723 20.9995927 12.123646-45.1771489 26.0829482-45.1407653-26.0621573 21.0351106-12.1444369 24.1416055 13.9380781z" fill="#fff" fill-rule="evenodd"/></svg>