<svg fill="none" height="268" viewBox="0 0 196 268" width="196" xmlns="http://www.w3.org/2000/svg" xmlns:xlink="http://www.w3.org/1999/xlink"><clipPath id="a"><path d="m0 0h195.4v267.4h-195.4z"/></clipPath><g clip-path="url(#a)"><path d="m128.1 245.5-88.3002-16.6c-6.1-1.1-8-9.7-3.6-15l16.7-16.6c18.3-17 29.9 8 42.2 14.4 5.0002 3.4 15.3002 6.9 25.5002 8.3 6.4.9 12.5 4.5 15.2 10.5l.9 2.2c2.3 6.4-2.7 13.9-8.6 12.8zm37 4.2-38.3-85.4c-1.3-3-1.7-6.1-1.1-9.2l9.4-50c.5-2.5 2.8-4.1 5.3-3.6 5 .9 10-2.5 11.1-7.7l.6-3.4c.9-5.2-2.5-10.2-7.7-11.1l-59.8002-11.3c-5.2-.9-10.2 2.5-11.1 7.7l-.6 3.6c-.9 5.2 2.5 10.2 7.7 11.1 2.3.5 3.9 2.7 3.4 5l-9.4 50c-.6 3.1-2.2 5.9-4.4 8.3l-66.50004 65.8c-7 7-3.399997 19.4 6.60004 21.3l141.1002 26.4c10 1.8 17.8-8.2 13.7-17.5z" fill="#38aeb7"/><path d="m67.3002 245.5 88.2998-16.6c6.1-1.1 8-9.7 3.6-15l-16.7-16.6c-18.3-17-29.9 8-42.2 14.4-4.9998 3.4-15.2998 6.9-25.4998 8.3-6.4.9-12.5 4.5-15.2 10.5l-.9 2.2c-2.4 6.4 2.6 13.9 8.6 12.8zm-37.1 4.2 38.3-85.4c1.3-3 1.7-6.1 1.1-9.2l-9.4-50c-.5-2.5-2.8-4.1-5.3-3.6-5 .9-10-2.5-11.1-7.7l-.6-3.4c-.9-5.2 2.5-10.2 7.7-11.1l59.7998-11.3c5.2-.9 10.2 2.5 11.1 7.7l.6 3.6c.9 5.2-2.5 10.2-7.7 11.1-2.3.5-3.9 2.7-3.4 5l9.4 50c.6 3.1 2.2 5.9 4.4 8.3l66.6 65.8c7 7 3.4 19.4-6.6 21.3l-141.0998 26.4c-10 1.8-17.8-8.2-13.8-17.5z" fill="#266aff"/><path d="m141.701 231h-89.7003c-6.1 0-9.7-8.1-6.3-14.1l13.4-19.4c14.8-20.2 30.8 2.3 44.2003 6.3 7.5 3.4 25.2 5 37.2 2l7.3 10.9c3.6 6 0 14.3-6.1 14.3zm37.2-2.7-56.1-80.8v-60.4h4.5c5.2 0 9.4-4.4 9.5-9.5v-3.6c0-5.3-4.4-9.5-9.5-9.5h-61.0003c-5.3 0-9.5 4.4-9.5 9.5v3.8c0 5.3 4.4 9.5 9.5 9.5h4.4v60.2l-56.1 80.8c-5.60005 8.3.2 19.7 10.3 19.7h143.6003c10.2-.2 16-11.4 10.4-19.7z" fill="#eef2ff"/><path d="m110.7 32.2001c5.357 0 9.7-4.3429 9.7-9.7001 0-5.3571-4.343-9.7-9.7-9.7s-9.7 4.3429-9.7 9.7c0 5.3572 4.343 9.7001 9.7 9.7001z" fill="#266aff"/><path d="m92.0988 59.7999c7.6216 0 13.8002-6.1784 13.8002-13.7999 0-7.6216-6.1786-13.8-13.8002-13.8-7.6215 0-13.8 6.1784-13.8 13.8 0 7.6215 6.1785 13.7999 13.8 13.7999z" fill="#38aeb7"/><path d="m91.3004 12.8c3.5346 0 6.4-2.86538 6.4-6.4s-2.8654-6.4-6.4-6.4-6.4 2.86538-6.4 6.4 2.8654 6.4 6.4 6.4z" fill="#eef2ff"/><g fill="#0848b7"><path d="m49.0996 248 48.7 9.1 49.3004-9.3z"/><path d="m95.2996 211.7c.8.5 1.6.9 2.5 1.6.9-.5 1.7-.9 2.5004-1.6 2.7-1.4 5.5-3.6 8.1-6.3-2-.5-3.8-1.1-5.2-1.7-8.0004-2.3-16.7004-11.1-25.6004-13.8-4.2-1.3-8.4-1.1-12.5 1.6 11.7-.1 20.6 15.4 30.2 20.2z"/></g></g></svg>