<svg height="127" viewBox="0 0 127 127" width="127" xmlns="http://www.w3.org/2000/svg"><path d="m63.9305212 7 48.9305208 28.2500496v56.5000991l-46.860042 27.0538513.0001803.002186-2.0706591 1.199619-1.4795212-.859805-47.451-27.3958513v-56.5000991zm4.3348824 15.784718c-.804713-2.4023688-3.4133708-3.7032905-5.8182176-2.897958-2.4029883.804713-3.70391 3.4146098-2.8985775 5.8182176.3816037 1.1404747 1.2061403 2.0870501 2.2642233 2.6309593v18.5077799l-6.9562144-4.3995935v-4.9199621l.1895184-.1024992c1.8639119-1.0656951 2.7821186-3.3372897 2.074705-5.4493391-.3896571-1.1640152-1.2092378-2.1068737-2.3088264-2.6544998-1.0989691-.5476261-2.345376-.6337348-3.5093912-.2446972-1.1633958.3902765-2.1068738 1.2098572-2.6544999 2.3088263-.5476261 1.0995886-.6337347 2.3459955-.2440777 3.5093913.3822232 1.1410942 1.2061403 2.0882891 2.2648428 2.6315788v7.2337443l11.1507578 7.0373671v22.9519763l-7.5143718-4.1171075v-9.7129295l.1895184-.1024431c1.8639119-1.0651717 2.7821186-3.3373658 2.0747049-5.4500148-.804713-2.4029883-3.4164682-3.70391-5.8182176-2.897958-2.4029882.804713-3.7032905 3.4152293-2.8985775 5.8182176.3816037 1.1404747 1.2061403 2.0870501 2.2642233 2.6309593v7.4146344l-12.1791053-6.670631v-7.505699l.2152823-.1165079c.7761499-.4470656 1.4047266-1.1108498 1.8141556-1.9302756.550104-1.1014471.6386906-2.3509514.2490336-3.5186835-.3896571-1.1683516-1.2104767-2.1143076-2.3113043-2.6644116-1.1026861-.5513431-2.3515709-.6380712-3.5193031-.2490336-2.4110416.8040935-3.7175387 3.4195657-2.9134452 5.8306073.3834622 1.148528 1.2129547 2.1000594 2.277852 2.6464465v9.9464759l4.2502972 2.3348447v14.2153577l-10.8657939-5.9253888v-3.1197342l.1895183-.1025012c1.863912-1.0657331 2.7821187-3.3379272 2.074705-5.4505761-.389657-1.1640153-1.2092377-2.1062543-2.3088263-2.6538804-1.0983497-.5476261-2.3453761-.6343542-3.5093913-.2440777-2.4029883.804713-3.7032905 3.4146098-2.8985775 5.8188371.3822232 1.1404747 1.2067598 2.0864307 2.2648428 2.6303398v5.5128108l38.865966 21.2855575v20.3760699l.6381682.370685 1.4795212.854198 2.0704788-1.196198.0001803-20.6358234 38.6937487-24.4436999.433021-.2738131v-5.4725441l.189519-.1024992c1.863911-1.0656951 2.782118-3.3372897 2.074704-5.4493391-.804713-2.4029883-3.415848-3.7032906-5.818217-2.8985775-1.164015.389657-2.1068738 1.2092377-2.6538805 2.3088263-.5476261 1.0989691-.6349737 2.345376-.2453166 3.5093912.3822232 1.1398553 1.2061403 2.0870502 2.2648431 2.6309594v3.1618593l-15.6420355 9.8888636v-21.3419308l5.2352808-3.3080581v-5.4719246l.1895241-.1023233c1.8640273-1.0639732 2.7840712-3.3349877 2.0796551-5.4470371-.8028546-2.4048468-3.4139903-3.7057685-5.8157397-2.9041529-1.1652541.388418-2.1081127 1.2073792-2.6569777 2.3057289-.5482456 1.0989691-.6362127 2.3447565-.2471752 3.5100107.3822232 1.1435722 1.2079988 2.0920061 2.2691792 2.6365347v3.155045l-20.3501328 12.8797446v-8.6337839l10.8342001-6.8143519v-10.0201948l.1895764-.1025573c1.864474-1.0662565 2.7827-3.3378511 2.0758859-5.4499006-.805952-2.4036077-3.4164683-3.70391-5.8188371-2.8985775-2.4029883.804713-3.70391 3.4146098-2.899197 5.8182176.3822232 1.1398552 1.2067598 2.0870502 2.2648428 2.6309593v7.6834916l-6.6464711 4.1970213v-25.0123885l.1895184-.1025012c1.8639119-1.0657325 2.7821186-3.3379073 2.0747049-5.4499567zm-26.3257 45.815366 19.8731282 10.9221672v14.1100449l-19.8731282-10.8372975zm39.1707534-6.2716817v21.3419308l-15.1092767 9.5431901v-21.3419307z" fill="#fff" fill-rule="evenodd"/></svg>