<svg height="127" viewBox="0 0 127 127" width="127" xmlns="http://www.w3.org/2000/svg"><path d="m98.1340594 110.419597c1.2202668-.887148 1.4902684-2.595989.6042892-3.816256s-2.5948203-1.490268-3.8150871-.604289c-1.2202668.887148-1.4902684 2.59482-.6054581 3.815087.887148 1.220267 2.5959891 1.491437 3.816256.605458zm-73.9278323-76.0422602c-.7422121 1.0215644-.5154575 2.4510532.5061069 3.1932653 1.0203955.7422121 2.4487155.5142887 3.1909276-.5061068.7422121-1.0215644.5154576-2.4498844-.5061068-3.1920965-1.0203956-.7422121-2.4487156-.5154575-3.1909277.504938zm0 57.4951394c.7422121 1.0203955 2.1705321 1.2471501 3.1909277.504938 1.0215644-.7410433 1.2483189-2.1705321.5061068-3.1920965-.7422121-1.0203955-2.1705321-1.2471501-3.1909276-.5061068-1.0215644.7422121-1.248319 2.1717009-.5061069 3.1932653zm88.4740209-28.7475697c0-1.262345-1.023902-2.2850782-2.285078-2.2850782-1.262345 0-2.285079 1.0227332-2.285079 2.2850782s1.022734 2.2850782 2.285079 2.2850782c1.261176 0 2.285078-1.0227332 2.285078-2.2850782zm-48.9065182-58.45943065c-1.5089698 0-2.7315743 1.22377334-2.7315743 2.73157431 0 1.50896981 1.2226045 2.73157434 2.7315743 2.73157434 1.507801 0 2.7304055-1.22260453 2.7304055-2.73157434 0-1.50780097-1.2226045-2.73157431-2.7304055-2.73157431zm11.4931837 45.69338245 30.0730315-33.3983759c-3.214304-2.8963805-6.7395193-5.4502914-10.5078529-7.63134309l-22.4709098 38.92113529c1.0426035.6019516 2.0174143 1.3090985 2.9057312 2.1085837zm5.3100309 9.1940794 43.9681776-9.3460284c-.910525-4.298986-2.271052-8.4296593-4.019634-12.3499419l-41.0601085 18.2817946c.4838989 1.0835128.8614335 2.2254675 1.1115649 3.4141757zm0 7.1439376c-.2501314 1.1887082-.627666 2.3306629-1.1115649 3.4153445l41.0601085 18.2806258c1.748582-3.9202826 3.109109-8.0497871 4.019634-12.3499419zm-8.2157621 11.3038319 22.4709098 38.9199668c3.7683336-2.181052 7.2935489-4.734963 10.5078529-7.631343l-30.0730315-33.3995451c-.8883169.8018228-1.8631277 1.5078009-2.9057312 2.1109213zm-8.5874525 2.3026108c-.6077957 0-1.2062408-.0315586-1.7965039-.093507l-4.6987286 44.702208c2.1354669.222079 4.3013237.337794 6.4952325.337794 2.19274 0 4.3585968-.115715 6.4928949-.338963l-4.6975598-44.701039c-.5902631.0619484-1.189877.093507-1.7953351.093507zm-11.4943525-4.4135321-30.0730319 33.3995451c3.2143044 2.89638 6.7395197 5.450291 10.5066844 7.631343l22.4720787-38.9199668c-1.0426035-.6031204-2.0174143-1.3090985-2.9057312-2.1109213zm-5.3100309-9.1929106-43.9693464 9.3460284c.91052477 4.298986 2.272221 8.4296593 4.02080259 12.3499419l41.05893991-18.2806258c-.4827301-1.0846816-.8602647-2.2266363-1.1103961-3.4153445zm1.1103961-10.5581133-41.05893991-18.2817946c-1.74858159 3.9202826-3.11027782 8.0509559-4.02080259 12.3499419l43.9693464 9.3460284c.2501314-1.1887082.627666-2.3306629 1.1103961-3.4141757zm7.105366-7.8884874-22.4720787-38.92113529c-3.7671647 2.18105169-7.29238 4.73496259-10.5066844 7.63134309l30.0730319 33.3983759c.8883169-.7994852 1.8631277-1.5066321 2.9057312-2.1085837zm8.5886213-2.3037796c.6054581 0 1.205072.0315586 1.7953351.093507l4.6975598-44.70220783c-2.1342981-.22207921-4.3001549-.33779417-6.4928949-.33779417-2.1939088 0-4.3597656.11571496-6.4952325.33779417l4.6987286 44.70220783c.5902631-.0619484 1.1887082-.093507 1.7965039-.093507zm21.1454476-30.3173191c-3.2809282-1.4633851-6.737182-2.6018333-10.3348653-3.3639156l-7.2397823 34.0552628c1.189877.2513002 2.3306629.627666 3.4153445 1.1103961zm23.8746846 21.503112c-1.824556-3.1535248-3.96353-6.1036718-6.386531-8.7943368l-25.8698906 23.2926029c.8018228.8894857 1.5078009 1.8642965 2.1109213 2.9057312zm-27.9352277 27.7879537 34.6233177 3.6397614c.184677-1.7871532.282859-3.6000209.282859-5.4350965s-.098182-3.6479433-.282859-5.4339277l-34.6233177 3.6385926c.0607796.5902632.093507 1.189877.093507 1.7953351 0 .6066269-.0327274 1.2050719-.093507 1.7953351zm21.5486967 32.9916203c2.423001-2.690665 4.561975-5.6396432 6.386531-8.7943368l-30.1455003-17.4039973c-.6031204 1.0414347-1.3090985 2.0162455-2.1109213 2.9057312zm-27.8230189 16.0726911c3.5976833-.762083 7.0539371-1.900531 10.3348653-3.363916l-14.1593031-31.8017432c-1.0846816.4827301-2.2254675.8590959-3.4153445 1.1103961zm-31.9571987-3.363916c3.2809282 1.463385 6.737182 2.601833 10.3360341 3.363916l7.2374447-34.0552631c-1.1887082-.2513002-2.3306629-.627666-3.4141757-1.1103961zm-23.8746842-21.5031119c1.8245561 3.1546936 3.9635295 6.1036718 6.3865306 8.7943368l25.8687218-23.2926029c-.800654-.8894857-1.5066321-1.8642965-2.1097525-2.9057312zm27.9352273-27.7879537-34.6233181-3.6385926c-.1858452 1.7859844-.2828588 3.5988521-.2828588 5.4339277s.0970136 3.6479433.2828588 5.4350965l34.6233181-3.6397614c-.0607796-.5902632-.093507-1.1887082-.093507-1.7953351 0-.6054581.0327274-1.2050719.093507-1.7953351zm4.3200251-9.6990174c-.800654.8894857-1.5066321 1.8642965-2.1097525 2.9057312l-30.1454999-17.4039973c1.8245561-3.1535248 3.9635295-6.1036718 6.3865306-8.7943368zm9.1929106-5.3100309c-1.1887082.2513002-2.3306629.627666-3.4141757 1.1103961l-14.1593031-31.8017433c3.2809282-1.4633851 6.737182-2.6018333 10.3360341-3.3639156z" fill="#fff" fill-rule="evenodd"/></svg>