<svg height="179" viewBox="0 0 150 179" width="150" xmlns="http://www.w3.org/2000/svg"><g fill="none" opacity=".9"><g transform="translate(49.940334 63.365155)"><path d="m25.0417661 28.9797136.2147971-.1252983 24.7374702-14.24821-24.9522673-14.51670649-24.97016705 14.35560859z" fill="#bec831"/><path d="m25.0417661 57.8520286v-28.872315l-24.97016705-14.5346062v28.8902148h.01789976z" fill="#a1a938"/><path d="m50.0119332 14.624105-24.75537 14.2303103-.2147971.1252983v28.872315.0178998l24.9701671-14.3556086v-.0178998z" fill="#999b37"/></g><g transform="translate(74.821002 77.863962)"><path d="m25.1312649 28.9976134.2147972-.1073986 24.7553699-14.24821-24.9701671-14.53460623-24.97016705 14.37350833z" fill="#cc2a65"/><path d="m25.1312649 57.8878282v-28.8902148l-24.97016705-14.5167065v28.8723151l.01789976.0178997z" fill="#a21d4c"/><path d="m50.101432 14.6420048-24.7553699 14.24821-.2147972.1073986v28.8902148l24.9701671-14.3556086z" fill="#b62454"/></g><g transform="translate(99.880668 92.362768)"><path d="m25.0417661 29.0334129.2147971-.1252983 24.7374702-14.2303103-24.9522673-14.53460621-24.97016705 14.35560861z" fill="#cc2a65"/><path d="m25.0417661 57.9236277v-28.8902148l-24.97016705-14.5167065v28.8723151l.01789976.0178997z" fill="#a21d4c"/><path d="m50.0119332 14.6778043-24.75537 14.2303103-.2147971.1252983v28.8902148l24.9701671-14.3556086z" fill="#b62454"/></g><g transform="translate(24.880668 77.684964)"><path d="m25.1312649 29.0155131.2147972-.1252983 24.7553699-14.24821-24.9701671-14.51670647-24.97016705 14.35560857z" fill="#c8d92b"/><path d="m25.1312649 57.8878282v-28.8723151l-24.97016705-14.5346062v28.8902148h.01789976z" fill="#c2d02f"/><path d="m50.101432 14.6599045-24.7553699 14.2303103-.2147972.1252983v28.8723151.0178997h.0178998l24.9522673-14.3556086v-.0178997z" fill="#b9be33"/></g><g transform="translate(49.940334 92.183771)"><path d="m25.0417661 29.0334129.2147971-.1073986 24.75537-14.24821-24.9701671-14.53460621-24.97016705 14.37350831z" fill="#cc2a65"/><path d="m25.0417661 57.9236277v-28.8902148l-24.97016705-14.5167065v28.8723151l.01789976.0178997z" fill="#a21d4c"/><path d="m50.0119332 14.6778043-24.75537 14.24821-.2147971.1073986v28.8902148h.0178998l24.9522673-14.3556086z" fill="#b62454"/></g><g transform="translate(74.821002 106.861575)"><path d="m25.1312649 28.8902148.2147972-.1252983 24.7553699-14.2303103-24.9701671-14.5346062-24.97016705 14.3556086z" fill="#33b4d7"/><path d="m25.1312649 57.7804296v-28.8902148l-24.97016705-14.5167064v28.872315l.01789976.0178998z" fill="#209ac5"/><path d="m50.101432 14.5346062-24.7553699 14.2303103-.2147972.1252983v28.8902148h.0178998l24.9522673-14.3556086z" fill="#0f8cae"/></g><g transform="translate(0 92.004773)"><path d="m25.0596659 29.0513126.1968973-.1252983 24.75537-14.24821-24.9522673-14.51670645h-.0178998l-24.95226729 14.35560855 24.95226729 14.5346062z" fill="#94d6e3"/><path d="m25.0417661 57.9236277h.0178998v-28.8723151l-24.97016709-14.5346062v28.8902148z" fill="#73ccdd"/><path d="m50.0119332 14.6957041-24.75537 14.2303102-.1968973.1252983v28.8723151.0178997l24.9522673-14.3556085h.0178997v-.0178998-28.872315z" fill="#3bafbb"/></g><g transform="translate(25.059666 106.682577)"><path d="m24.9701671 28.8902148.2147971-.1073986 24.7374702-14.24821-24.9522673-14.51670644-24.9701671 14.35560864z" fill="#94d6e3"/><path d="m24.9701671 57.7804296v-28.872315-.0178998l-24.9701671-14.5167064v28.872315.0178998z" fill="#73ccdd"/><path d="m49.9224344 14.5346062-24.75537 14.24821-.1968973.1073986v28.8902148l24.970167-14.3556086v-28.8902148z" fill="#3bafbb"/></g><g transform="translate(49.940334 121.181384)"><path d="m25.0596659 28.9260143.1968973-.1073985 24.75537-14.2482101-24.9522673-14.53460618h-.0178998l-24.95226729 14.35560858 24.95226729 14.5346062z" fill="#33b4d7"/><path d="m25.0417661 57.8162291h.0178998v-28.8902148l-24.97016709-14.5167064v28.872315.0178998z" fill="#209ac5"/><path d="m50.0119332 14.5704057-24.75537 14.2482101-.1968973.1073985v28.8902148l24.970167-14.3556086v-28.8902148z" fill="#0f8cae"/></g><g transform="translate(49.940334 31.682578)"><path d="m25.0596659 28.9618138.1968973-.1252983 24.75537-14.2303102-24.9522673-14.53460625-24.97016709 14.35560855 24.95226729 14.5346062z" fill="#bec831"/><path d="m25.0417661 57.8520286.0178998-28.8902148-24.97016709-14.5346062-.01789976 28.8902148h.01789976z" fill="#a1a938"/><path d="m50.0298329 14.624105-24.7732697 14.2124105-.1968973.1252983h-.0178998v28.8902148l24.9701671-14.3377088v-.0178998z" fill="#999b37"/></g><g transform="translate(74.821002 46.181385)"><path d="m25.1312649 28.9976134.2147972-.1073986 24.7553699-14.2303103-24.9522673-14.53460617-24.97016709 14.33770887z" fill="#ee539a"/><path d="m25.1312649 57.8878282v-28.8902148l-24.95226729-14.5346062-.01789976 28.8902148h.01789976z" fill="#d01b68"/><path d="m50.101432 14.6599045-24.7553699 14.2303103-.2147972.1073986v28.8902148l24.9701671-14.3377089.0178997-28.8902148z" fill="#ec0f68"/></g><g transform="translate(99.880668 60.680191)"><path d="m25.0417661 29.0513126.2147971-.1252983 24.75537-14.2303102-24.9522673-14.53460625h-.0178998l-24.97016705 14.33770885z" fill="#a159a2"/><path d="m25.0238663 57.9415274.0178998-28.8902148-24.97016705-14.5346062v28.8723151.0178997z" fill="#772a86"/><path d="m50.0119332 14.6957041-24.75537 14.2303102-.2147971.1252983-.0178998 28.8902148h.0178998l24.9701671-14.3556085z" fill="#8e3b95"/></g><g transform="translate(24.880668 46.002387)"><path d="m25.1491647 28.9976134.1968974-.1252984 24.7553699-14.2303102-24.9522673-14.53460623-24.97016709 14.33770883 24.95226729 14.5346062z" fill="#c8d92b"/><path d="m25.1312649 57.8699284.0178998-28.872315-24.97016709-14.552506-.01789976 28.8902148h.01789976z" fill="#c2d02f"/><path d="m50.1193317 14.6420048-24.7732696 14.2303102-.1968974.1252984-.0178998 28.872315 24.9701671-14.3377088z" fill="#b9be33"/></g><g transform="translate(49.940334 60.501194)"><path d="m25.0417661 29.0334129.2147971-.1252983 24.75537-14.2303103-24.9522673-14.53460621-24.97016709 14.33770881z" fill="#f7af19"/><path d="m25.0417661 57.9236277v-.0178998.0178998-28.8902148l-24.95226729-14.5346062-.01789976 28.872315.01789976.0178998z" fill="#f2901f"/><path d="m50.0119332 14.6778043-24.75537 14.2303103-.2147971.1252983v28.8902148l24.9701671-14.3556086.0178997-28.8902148z" fill="#f9a120"/></g><g transform="translate(74.821002 75.178998)"><path d="m25.1312649 28.8902148.2147972-.1073986 24.7553699-14.2303102-24.9522673-14.552506h-.0178998l-24.97016705 14.3556086z" fill="#a159a2"/><path d="m25.1133652 57.7804296.0178997-28.8902148-24.97016705-14.5346062v28.8902148z" fill="#772a86"/><path d="m50.101432 14.552506-24.7553699 14.2303102-.2147972.1073986-.0178997 28.8902148h.0178997l24.9701671-14.3377088z" fill="#8e3b95"/></g><g transform="translate(0 60.322196)"><path d="m25.0596659 29.0155131.1968973-.1252983 24.75537-14.2303103-24.9522673-14.53460617-24.97016709 14.35560857 24.95226729 14.5346062z" fill="#f6dd03"/><path d="m25.0417661 57.9057279.0178998-28.8902148-24.97016709-14.5346062-.01789976 28.8723151.01789976.0178997z" fill="#f9bb1d"/><path d="m50.0298329 14.6778043-24.7732697 14.2124105-.1968973.1252983-.0178998 28.8902148 24.9701671-14.3556086v.0178998-.0178998z" fill="#e9ae20"/></g><g transform="translate(24.880668 74.821003)"><path d="m25.1312649 29.0513126.2147972-.1073985 24.7553699-14.2303103-24.9522673-14.55250595-24.97016709 14.35560855z" fill="#f7af19"/><path d="m25.1312649 57.9415274v-28.8902148l-24.95226729-14.5346062-.01789976 28.8902148h.01789976z" fill="#f2901f"/><path d="m50.101432 14.7136038-24.7553699 14.2303103-.2147972.1073985v28.8902148l24.9701671-14.3377088.0178997-28.8902148z" fill="#f9a120"/></g><g transform="translate(49.940334 89.498807)"><path d="m25.0417661 28.9260143.2147971-.1252983 24.75537-14.2303103-24.9522673-14.53460618h-.0178998l-24.97016705 14.33770888z" fill="#31838b"/><path d="m25.0238663 57.7983294.0178998-28.8723151-24.97016705-14.5346062v-.0178997 28.8902148.0178997z" fill="#22626c"/><path d="m50.0119332 14.5704057-24.75537 14.2303103-.2147971.1252983-.0178998 28.8723151v.0178997h.0178998l24.9701671-14.3556086z" fill="#1b4b56"/></g><g transform="translate(49.940334)"><path d="m25.0417661 28.9618138.2147971-.1252983 24.7374702-14.24821-24.9522673-14.51670645-24.97016705 14.35560855 24.97016705 14.5167065z" fill="#bec831"/><path d="m25.0417661 57.8341289v-28.8723151l-24.97016705-14.5346062v28.8902148h.01789976z" fill="#a1a938"/><path d="m50.0119332 14.6062053-24.75537 14.2303102-.2147971.1252983v28.8723151l24.9701671-14.3556086z" fill="#999b37"/></g><g transform="translate(74.821002 14.498807)"><path d="m25.1312649 28.9797136.2147972-.1073986 24.7553699-14.24821-24.9701671-14.53460619-24.97016705 14.35560859z" fill="#ee539a"/><path d="m25.1312649 57.8699284v-28.8902148l-24.97016705-14.5167064v28.872315l.01789976.0178998z" fill="#d01b68"/><path d="m50.101432 14.624105-24.7553699 14.24821-.2147972.1073986v28.8902148l24.9701671-14.3556086z" fill="#ec0f68"/></g><g transform="translate(99.880668 28.997613)"><path d="m25.0417661 29.0155131.2147971-.1252983 24.7374702-14.2303103-24.9522673-14.53460617-24.97016705 14.35560857z" fill="#a159a2"/><path d="m25.0417661 57.9057279v-28.8902148l-24.97016705-14.5346062v28.8902148h.01789976z" fill="#772a86"/><path d="m50.0119332 14.6599045-24.75537 14.2303103-.2147971.1252983v28.8902148l24.9701671-14.3556086z" fill="#8e3b95"/></g><g transform="translate(24.880668 14.319809)"><path d="m25.1312649 28.9976134.2147972-.1252984 24.7553699-14.24821-24.9701671-14.51670643-24.97016705 14.35560863 24.97016705 14.5167064z" fill="#c8d92b"/><path d="m25.1312649 57.8699284v-28.872315l-24.97016705-14.5346062v28.8902148h.01789976z" fill="#c2d02f"/><path d="m50.101432 14.6420048-24.7553699 14.2303102-.2147972.1252984v28.872315h.0178998l24.9522673-14.3556086z" fill="#b9be33"/></g><g transform="translate(49.940334 28.818616)"><path d="m25.0417661 29.0155131.2147971-.1073985 24.75537-14.2482101-24.9701671-14.53460617-24.97016705 14.35560857z" fill="#c8d92b"/><path d="m25.0417661 57.9057279v-28.8902148l-24.97016705-14.5167064v28.872315l.01789976.0178998z" fill="#c2d02f"/><path d="m50.0119332 14.6599045-24.75537 14.2482101-.2147971.1073985v28.8902148h.0178998l24.9522673-14.3556086z" fill="#b9be33"/></g><g transform="translate(74.821002 43.317422)"><path d="m25.1312649 29.0513126.2147972-.1252983 24.6837708-14.3556086-25.0417661-14.40930785-24.88066823 14.48090695z" fill="#833593"/><path d="m25.274463 57.9415274-.1431981-28.8902148-25.04176609-14.4093078.14319809 28.8902148h.01789976z" fill="#652977"/><path d="m50.0298329 14.5704057-24.6837708 14.3556086-.2147972.1252983.1431981 28.8902148 24.898568-14.4809069z" fill="#4d1f5b"/></g><g transform="translate(0 28.639618)"><path d="m25.0596659 29.0334129.1968973-.1252983 24.75537-14.2482101-24.9522673-14.51670641h-.0178998l-24.95226729 14.35560861 24.95226729 14.5346062z" fill="#f6dd03"/><path d="m25.0417661 57.9057279h.0178998v-28.872315l-24.97016709-14.5346062v28.8902148z" fill="#f9bb1d"/><path d="m50.0119332 14.6778043-24.75537 14.2303103-.1968973.1252983v28.872315.0178998l24.9522673-14.3556086h.0178997v-.0178998-28.872315z" fill="#e9ae20"/></g><g transform="translate(25.059666 43.138425)"><path d="m24.9701671 29.0513126.2147971-.1073985 24.7374702-14.24821-24.9522673-14.53460625-24.9701671 14.37350835z" fill="#f7af19"/><path d="m24.9701671 57.9415274v-28.8902148l-24.9701671-14.5167064v28.872315.0178998z" fill="#f2901f"/><path d="m49.9224344 14.6957041-24.75537 14.24821-.1968973.1073985v28.8902148l24.970167-14.3556085v-28.8902148z" fill="#f9a120"/></g><g transform="translate(49.940334 57.816229)"><path d="m25.0596659 28.9081146.1968973-.1252984 24.75537-14.2303102-24.9522673-14.53460624h-.0178998l-24.95226729 14.35560864 24.95226729 14.5346062z" fill="#f7af19"/><path d="m25.0417661 57.7983294h.0178998v-28.8902148l-24.97016709-14.5167065v28.8723151.0178997z" fill="#f2901f"/><path d="m50.0119332 14.552506-24.75537 14.2303102-.1968973.1252984v28.8902148l24.970167-14.3556086v-28.8902148z" fill="#f9a120"/></g></g></svg>