<svg height="173" viewBox="0 0 150 173" width="150" xmlns="http://www.w3.org/2000/svg" xmlns:xlink="http://www.w3.org/1999/xlink"><linearGradient id="a"><stop offset="0" stop-color="#21f2ac"/><stop offset="1" stop-color="#aa21f4"/></linearGradient><linearGradient id="b" x1="0%" x2="100%" xlink:href="#a" y1="50%" y2="50%"/><linearGradient id="c" x1="-.001%" x2="100.001%" xlink:href="#a" y1="53.979%" y2="46.019%"/><linearGradient id="d" x1="0%" x2="100.001%" xlink:href="#a" y1="58.413%" y2="41.587%"/><linearGradient id="e" x1="0%" x2="100.001%" xlink:href="#a" y1="63.398%" y2="36.602%"/><linearGradient id="f" x1="4.477%" x2="95.523%" xlink:href="#a" y1="67.363%" y2="32.634%"/><linearGradient id="g" x1="8.612%" x2="91.388%" xlink:href="#a" y1="71.214%" y2="28.789%"/><linearGradient id="h" x1="12.501%" x2="87.499%" xlink:href="#a" y1="75%" y2="25.001%"/><mask id="i" fill="#fff"><path d="m33.8475 103.70625h58.99125l29.4975-51.08625-29.4975-51.09h-58.99125l-29.4975 51.09zm59.53125.9375h-60.07125l-30.04125-52.02375 30.04125-52.0275h60.07125l30.04125 52.0275z" fill="#fff" fill-rule="evenodd"/></mask><mask id="j" fill="#fff"><path d="m4.0875 65.62875 36.2775 51.81 63.00375-5.5125 26.73-57.31875-36.27375-51.80625-63.0075 5.50875zm35.82375 52.7925-.1575-.22125-36.7425-52.47375.1125-.2475 27.07125-58.05375 64.08375-5.60625.1575.22125 36.73875 52.47375-.1125.24375-27.07125 58.05375z" fill="#fff" fill-rule="evenodd"/></mask><mask id="k" fill="#fff"><path d="m4.3725 79.33875 43.3875 51.705 66.46875-11.71875 23.085-63.4275-43.3875-51.705-66.46875 11.71875zm43.01625 52.725-.1725-.20625-43.9125-52.33125.09375-.255 23.36625-64.18875.26625-.045 67.2675-11.865.1725.20625 43.9125 52.33125-.09375.255-23.36625 64.18875-.26625.04875z" fill="#fff" fill-rule="evenodd"/></mask><mask id="l" fill="#fff"><path d="m1.5375 89.94 50.73375 50.73375 69.3075-18.57 18.57-69.3075-50.73375-50.73375-69.3075 18.57zm50.45625 51.78-.195-.19125-51.3075-51.3075.0675-.2625 18.78-70.09125.26625-.0675 70.0875-18.78375.195.19125 51.3075 51.3075-.0675.2625-18.78 70.09125-.2625.07125z" fill="#fff" fill-rule="evenodd"/></mask><mask id="m" fill="#fff"><path d="m15.795 29.2275-.25125.09-13.33875 75.64875-.04875.26625 58.845 49.37625.20625.17625 72.18375-26.27625.2475-.09 13.3425-75.6525.04875-.2625-58.84875-49.37625-.2025-.1725zm-12.61875 75.6375 13.1925-74.85 71.41875-25.99125 58.22625 48.8475-13.2 74.85-71.41875 25.995z" fill="#fff" fill-rule="evenodd"/></mask><mask id="n" fill="#fff"><path d="m8.2125 35.85-.2475.1125-7.06875 80.76-.0225.27375 66.63 46.64625 73.47375-34.25625.2475-.1125 7.065-80.76.0225-.27-66.63-46.65375zm-6.35625 80.685 6.9975-79.95 72.735-33.91875 65.74125 46.035-6.99375 79.94625-72.73875 33.91875z" fill="#fff" fill-rule="evenodd"/></mask><mask id="o" fill="#fff"><path d="m74.595.23625-74.12625 42.79875-.46875.26625v86.13375l74.595 43.065 74.1225-42.795.465-.27v-86.13375zm-72.72 128.115v-83.96625l72.72-41.98125 72.7125 41.98125v83.96625l-72.7125 41.985z" fill="#fff" fill-rule="evenodd"/></mask><g fill="none" fill-rule="evenodd"><path d="m33.8475 103.70625h58.99125l29.4975-51.08625-29.4975-51.09h-58.99125l-29.4975 51.09zm59.53125.9375h-60.07125l-30.04125-52.02375 30.04125-52.0275h60.07125l30.04125 52.0275z" fill="url(#b)" mask="url(#i)" transform="translate(11.25 34.261875)"/><path d="m4.0875 65.62875 36.2775 51.81 63.00375-5.5125 26.73-57.31875-36.27375-51.80625-63.0075 5.50875zm35.82375 52.7925-.1575-.22125-36.7425-52.47375.1125-.2475 27.07125-58.05375 64.08375-5.60625.1575.22125 36.73875 52.47375-.1125.24375-27.07125 58.05375z" fill="url(#c)" mask="url(#j)" transform="translate(7.5 26.761875)"/><path d="m4.3725 79.33875 43.3875 51.705 66.46875-11.71875 23.085-63.4275-43.3875-51.705-66.46875 11.71875zm43.01625 52.725-.1725-.20625-43.9125-52.33125.09375-.255 23.36625-64.18875.26625-.045 67.2675-11.865.1725.20625 43.9125 52.33125-.09375.255-23.36625 64.18875-.26625.04875z" fill="url(#d)" mask="url(#k)" transform="translate(3.75 19.261875)"/><path d="m1.5375 89.94 50.73375 50.73375 69.3075-18.57 18.57-69.3075-50.73375-50.73375-69.3075 18.57zm50.45625 51.78-.195-.19125-51.3075-51.3075.0675-.2625 18.78-70.09125.26625-.0675 70.0875-18.78375.195.19125 51.3075 51.3075-.0675.2625-18.78 70.09125-.2625.07125z" fill="url(#e)" mask="url(#l)" transform="translate(3.75 15.511875)"/><path d="m15.795 29.2275-.25125.09-13.33875 75.64875-.04875.26625 58.845 49.37625.20625.17625 72.18375-26.27625.2475-.09 13.3425-75.6525.04875-.2625-58.84875-49.37625-.2025-.1725zm-12.61875 75.6375 13.1925-74.85 71.41875-25.99125 58.22625 48.8475-13.2 74.85-71.41875 25.995z" fill="url(#f)" mask="url(#m)" transform="translate(0 8.011875)"/><path d="m8.2125 35.85-.2475.1125-7.06875 80.76-.0225.27375 66.63 46.64625 73.47375-34.25625.2475-.1125 7.065-80.76.0225-.27-66.63-46.65375zm-6.35625 80.685 6.9975-79.95 72.735-33.91875 65.74125 46.035-6.99375 79.94625-72.73875 33.91875z" fill="url(#g)" mask="url(#n)" transform="translate(0 4.261875)"/><path d="m74.595.23625-74.12625 42.79875-.46875.26625v86.13375l74.595 43.065 74.1225-42.795.465-.27v-86.13375zm-72.72 128.115v-83.96625l72.72-41.98125 72.7125 41.98125v83.96625l-72.7125 41.985z" fill="url(#h)" mask="url(#o)" transform="translate(0 .511875)"/></g></svg>