<svg height="150" viewBox="0 0 150 150" width="150" xmlns="http://www.w3.org/2000/svg"><g fill="none" fill-rule="evenodd"><g fill="#87738d"><path d="m129.807624 93.1011801c-1.411956 4.3085404-3.307919 8.3739129-5.617081 12.1406829l14.5691 8.916149c2.989286-4.87826 5.443789-10.141304 7.272671-15.7206518z"/><path d="m141.637873 91.0112888c.607453-2.5509317 1.080279-5.160559 1.40031-7.8270186.319565-2.665528.476553-5.3138199.489597-7.9360249l-16.327174-.0586956c-.009783 1.9993789-.129504 4.018323-.373137 6.0512422-.243634 2.0333851-.604658 4.0229814-1.067702 5.968323z"/><path d="m149.552562 69.071413c-.457453-5.852795-1.598758-11.5476708-3.35031-16.9937888l-16.263354 5.2192547c1.352795 4.2065217 2.233695 8.6040372 2.587732 13.1245341z"/><path d="m130.539177 34.7929193-13.242857 9.5487577c2.360404 3.271118 4.346273 6.8156832 5.906832 10.5666149l15.081988-6.2571428c-2.046429-4.9192547-4.650466-9.5678572-7.745963-13.8582298"/><path d="m119.08337 14.4770963-10.088199 13.7809006c3.619099 2.6548137 6.906056 5.7125776 9.801708 9.101087l12.978261-11.0981367c-3.749534-4.3868012-8.004969-8.3468944-12.69177-11.7838509"/><path d="m88.2652174 18.6694099 3.9768633-16.60760866c-2.7829192-.6628882-5.6296583-1.17903726-8.538354-1.52795031-2.9082298-.3484472-5.7964286-.51987577-8.6571428-.53385093l-.0614907 17.0776398c2.2090062.0102484 4.439441.1430124 6.6861801.412267 2.2462733.2687889 4.445031.6675466 6.5939441 1.1795031"/><path d="m58.7531832 25.0753416c3.8068323-1.2242236 7.7874224-2.0217391 11.878882-2.3417702l-1.2908385-16.27826084c-5.3655279.4197205-10.5857143 1.46552795-15.5781056 3.07127329z"/><path d="m40.9009472 28.0202795c3.614441-2.607764 7.5312112-4.8023292 11.6753106-6.5263975l-6.5450311-15.77468945c-5.3659938 2.23183229-10.4375776 5.07391305-15.1173913 8.45031055z"/><path d="m32.4712733 44.0309627c2.402795-3.2757764 5.1703416-6.2506211 8.2369565-8.8714285l-10.6104037-12.4080746c-4.0215839 3.4369565-7.6513975 7.3383541-10.8018634 11.633851z"/><path d="m19.7451242 56.9004503c1.4119565-4.3085404 3.3079193-8.373913 5.6166149-12.1406832l-14.5686335-8.9161491c-2.98928572 4.8782609-5.44378883 10.1413044-7.27267082 15.7206522z"/><path d="m7.9151087 58.9903416c-.60745342 2.5509317-1.08074535 5.160559-1.40031056 7.8270186-.31956522 2.665528-.47701864 5.3138199-.48959628 7.9360249l16.32717394.0586956c.0093167-1.9993788.1295031-4.0183229.3726708-6.0512422.2440994-2.0333851.6046584-4.0234472 1.0681677-5.968323z"/><path d="m17.0260714 79.5800776-17.02593165 1.35c.45791926 5.8532609 1.59875777 11.5476708 3.3507764 16.9942547l16.26288815-5.2192547c-1.352795-4.2065217-2.2341614-8.6045031-2.5877329-13.125"/><path d="m32.2561025 105.660186c-2.3599379-3.271118-4.3462733-6.8161487-5.9063665-10.5670804l-15.0819876 6.2576084c2.0459628 4.919255 4.6509317 9.567857 7.7459628 13.857764z"/><path d="m30.7557764 112.64278-12.9782609 11.09767c3.7495342 4.386802 8.0054348 8.346895 12.6917702 11.784317l10.0886646-13.780901c-3.6195652-2.654813-6.9065217-5.713043-9.8021739-9.101086"/><path d="m47.4061025 119.724037-8.5239131 13.928106c4.4711181 2.740528 9.2962733 4.990994 14.4107143 6.667081l5.1018634-15.511957c-3.9-1.277795-7.5791926-2.993944-10.9886646-5.08323"/><path d="m61.2875311 131.332267-3.9768634 16.607609c2.7829193.662422 5.6296584 1.179037 8.538354 1.52795 2.9082299.348447 5.7964286.519876 8.6571429.533385l.0614907-17.077174c-2.2090062-.010248-4.4399069-.143012-6.6861801-.412267-2.2462733-.269254-4.4450311-.667546-6.5939441-1.179503"/><path d="m90.7995652 124.926056c-3.8068323 1.224689-7.7874223 2.022205-11.878882 2.342236l1.2908385 16.278261c5.365528-.420187 10.5857143-1.465994 15.5781056-3.071739z"/><path d="m108.652034 121.981351c-3.614907 2.607764-7.531211 4.802329-11.6753104 6.526397l6.5445654 15.77469c5.366459-2.231832 10.437577-5.073913 15.117391-8.450311z"/><path d="m117.081708 105.970901c-2.402795 3.27531-5.170807 6.250155-8.237422 8.870962l10.610403 12.408541c4.021584-3.436957 7.651398-7.338354 10.80233-11.634317z"/><path d="m102.146646 30.2775932 8.523913-13.9285715c-4.471584-2.7400621-9.296273-4.9905279-14.4107143-6.66661487l-5.1018633 15.51149067c3.8995341 1.2782609 7.5791925 2.99441 10.9886646 5.0836957"/></g><g fill="#e8a59a"><path d="m83.8897826 36.9423913 4.3756211-18.2729814c-2.1493789-.5119565-4.3476708-.9107142-6.5944099-1.1795031-2.2462733-.2692546-4.4767081-.4020186-6.6857143-.4127329l-.0680124 18.7895963c1.4930124.0074534 3 .0899068 4.5177018.2720497 1.5186336.1821428 3.0023292.4574534 4.4548137.8035714"/><path d="m71.6820186 35.9793634-1.05-13.2461181c-4.0914596.3200311-8.0720497 1.1175466-11.878882 2.3422361l4.0630435 12.6586956c2.8420808-.9139751 5.8113354-1.5158385 8.8658385-1.7548136"/><path d="m51.8875155 43.2571584c2.4423913-1.7622671 5.0902174-3.2408385 7.8903727-4.4054348l-7.2013975-17.3576087c-4.1440994 1.7240683-8.0608696 3.9181677-11.6753106 6.5263975z"/><path d="m49.3426863 45.257236-8.6343167-10.0975155c-3.0666149 2.6208075-5.8346274 5.5956522-8.2369566 8.8714286l10.7254659 7.851708c1.7939441-2.4456521 3.8562112-4.6690993 6.1458074-6.6256211"/><path d="m37.5920963 62.7707609c.9545031-2.9119566 2.2406832-5.6548137 3.8007764-8.2006211l-16.0309007-9.8105591c-2.3086956 3.7672361-4.2046583 7.8321429-5.6170807 12.1406833z"/><path d="m22.7252795 68.7606988c-.2436335 2.0329192-.363354 4.0518633-.3731366 6.0512422l13.2903726.0479814c.0069876-1.4930125.0899069-3 .2715839-4.5177019.1821428-1.5186335.4579192-3.0023292.8040372-4.4548137l-12.9251552-3.095031c-.4630435 1.9448758-.8240684 3.9354037-1.0677019 5.968323"/><path d="m35.7548758 78.0947516-18.7290373 1.4850931c.3540373 4.5209628 1.2349379 8.9184783 2.5881988 13.125l17.8956521-5.7437888c-.9139751-2.8420807-1.5158385-5.8113354-1.7548136-8.8663043"/><path d="m43.0327174 97.8896739c-1.7622671-2.4423913-3.2408385-5.0902174-4.4054348-7.8903727l-12.2776397 5.0939441c1.5600931 3.7509317 3.5464285 7.2954967 5.9063664 10.5670807z"/><path d="m45.0327484 100.434503-14.2770186 12.20823c2.8956522 3.388043 6.1826087 6.446273 9.8021739 9.101087l11.1004659-15.163509c-2.4456522-1.793479-4.6690994-3.856212-6.6256212-6.145808"/><path d="m54.3458851 108.38427-6.9395963 11.339907c3.4094721 2.089286 7.0886646 3.805435 10.9881988 5.08323l4.1520186-12.62236c-2.9119565-.954504-5.6548137-2.240684-8.2006211-3.800777"/><path d="m65.6629658 113.059006-4.3756211 18.273447c2.1493789.511491 4.3481367.910249 6.59441 1.179504 2.2458074.269254 4.476708.401552 6.6857142.412267l.0680125-18.789131c-1.4930125-.007453-3-.090373-4.5181677-.27205-1.5181677-.182142-3.0018634-.457919-4.4543479-.804037"/><path d="m77.8707298 114.022081 1.05 13.246584c4.0914596-.320497 8.0720497-1.118013 11.878882-2.342702l-4.0630435-12.658696c-2.8420807.914441-5.8113354 1.515839-8.8658385 1.754814"/><path d="m97.6652329 106.744705c-2.4423913 1.761801-5.0902174 3.240373-7.8903727 4.405435l7.2013976 17.357608c4.1445652-1.724068 8.0608692-3.918633 11.6757762-6.526397z"/><path d="m100.210062 104.744441 8.634317 10.097516c3.066615-2.620808 5.834627-5.595653 8.237422-8.870963l-10.725931-7.8521741c-1.793479 2.4456521-3.856212 4.6690991-6.145808 6.6256211"/><path d="m111.960652 87.2309161c-.954503 2.9119566-2.241149 5.6548137-3.800776 8.2006212l16.0309 9.8105587c2.309162-3.767236 4.204659-7.8321426 5.617081-12.140683z"/><path d="m113.638416 79.6596894c-.182143 1.5186336-.457453 3.0018634-.804037 4.4548137l12.925621 3.0945652c.463043-1.9453416.823602-3.9349379 1.067236-5.9678571.244099-2.0333851.36382-4.0523292.373137-6.0517081l-13.289907-.0475155c-.007454 1.4930124-.089907 2.9995341-.27205 4.5177018"/><path d="m113.79764 71.9064596 18.729037-1.4850931c-.354037-4.5204969-1.234938-8.9180125-2.587733-13.1245342l-17.896118 5.7437888c.914441 2.8420808 1.515839 5.8113354 1.754814 8.8658385"/><path d="m106.519798 52.1119565c1.762267 2.4423913 3.240839 5.0902174 4.405901 7.8903727l12.277174-5.0939441c-1.560093-3.7509317-3.546429-7.2954969-5.906367-10.5670808z"/><path d="m104.52 49.5671273 14.276553-12.2082298c-2.895187-3.3880435-6.182143-6.4462733-9.801708-9.1010869l-11.1004661 15.1635093c2.4456521 1.7939441 4.6690991 3.8562112 6.6256211 6.1458074"/><path d="m95.2068634 41.6174068 6.9395966-11.3399068c-3.4094724-2.0892857-7.088665-3.8054348-10.9881991-5.0832298l-4.1520187 12.6223602c2.9119566.9545031 5.6548137 2.2406833 8.2006212 3.8007764"/></g><g fill="#ffbc95"><path d="m82.3721739 43.2801242 1.5177019-6.3377329c-1.4524845-.346118-2.9361801-.6214286-4.4548137-.8035714-1.5177019-.1821429-3.0246894-.2645963-4.5177019-.2720497l-.0237577 6.5166149c1.2447205.0060559 2.5001553.075 3.7658385.2268633 1.2656832.1518634 2.5020186.3815218 3.7127329.6698758"/><path d="m71.6820186 35.9793634c-3.0545031.2389751-6.0237577.8408385-8.8658385 1.7548136l1.9914597 6.2059006c2.3692546-.7621118 4.8437888-1.263354 7.3895962-1.4627329z"/><path d="m62.2756211 44.8714286-2.4973602-6.0195652c-2.8006211 1.1645962-5.4484472 2.6431677-7.8908385 4.4054347l3.8114906 5.2858696c2.0357143-1.4687888 4.2428572-2.7009317 6.5767081-3.6717391"/><path d="m53.5779969 50.2104037-4.2354037-4.9532608c-2.2891305 1.9565217-4.3518634 4.1799689-6.1458075 6.6256211l5.2588509 3.8496894c1.4948758-2.0380435 3.2142858-3.8916149 5.1223603-5.5220497"/><path d="m46.9520963 57.9727174-5.5593168-3.4024845c-1.5600932 2.5458075-2.8462733 5.2886646-3.8007764 8.2006211l6.1923913 2.036646c.7951863-2.4270186 1.8670808-4.7128882 3.1677019-6.8347826"/><path d="m42.3858075 71.1176087c.1518633-1.2656832.3815217-2.5020186.6698757-3.7127329l-6.3377329-1.5177019c-.346118 1.4529503-.6214286 2.9361801-.8035714 4.4548137-.1821429 1.5181677-.2645963 3.0246894-.2720497 4.5177018l6.5166149.0237578c.0060559-1.2447205.075-2.5001553.2268634-3.7658385"/><path d="m42.2529969 77.5797671-6.4979814.5147515c.2389752 3.054969.8403727 6.0242236 1.7548137 8.8667702l6.2059006-1.9919254c-.7621118-2.3692547-1.263354-4.843323-1.4627329-7.3895963"/><path d="m44.6469876 87.5015683-6.0195652 2.4973603c1.1645962 2.8006211 2.6431677 5.4484472 4.4054347 7.8908385l5.2858696-3.8114907c-1.4687888-2.0357143-2.7009317-4.2428571-3.6717391-6.5767081"/><path d="m49.9857298 96.1991925-4.952795 4.2354035c1.9565217 2.289597 4.1799689 4.352329 6.6251553 6.145808l3.8496894-5.258851c-2.0380435-1.494876-3.8911491-3.2138201-5.5220497-5.1223605"/><path d="m54.3458851 108.38427c2.5458074 1.560093 5.2886646 2.846273 8.2006211 3.800777l2.0361801-6.191926c-2.4265528-.795652-4.7128882-1.868012-6.8343167-3.168168z"/><path d="m67.1805745 106.721506-1.5177018 6.337267c1.4524844.346584 2.9361801.621895 4.4543478.804038 1.5181677.182142 3.0251553.264596 4.5181677.272049l.0237578-6.516615c-1.2447205-.006056-2.5001553-.075-3.7658385-.227329-1.2656833-.151397-2.5020187-.381056-3.712733-.66941"/><path d="m77.3553261 107.524006.5152174 6.497982c3.0545031-.23851 6.0237577-.839907 8.8663043-1.754348l-1.9919254-6.206367c-2.3692547.762112-4.843323 1.26382-7.3895963 1.462733"/><path d="m87.2771273 105.130202 2.4973603 6.020031c2.8006211-1.165062 5.4484472-2.643634 7.8908385-4.405435l-3.8114907-5.286335c-2.0357143 1.468789-4.2428571 2.700931-6.5767081 3.671739"/><path d="m95.9747516 99.7912733 4.2354034 4.9532607c2.289597-1.956522 4.352329-4.179969 6.145808-6.625621l-5.258851-3.8496894c-1.494876 2.0380435-3.2138201 3.8916149-5.1223604 5.5220497"/><path d="m102.600699 92.0289596 5.559317 3.4024845c1.559627-2.5458075 2.846273-5.2886646 3.800776-8.2006211l-6.191926-2.036646c-.795652 2.4270187-1.868012 4.7128882-3.168167 6.8347826"/><path d="m107.393711 75.1181832c-.006056 1.2447205-.075 2.5001553-.226863 3.7658385-.151398 1.2656833-.381522 2.5020187-.669876 3.712733l6.337733 1.5177018c.346118-1.4529503.621894-2.9361801.803571-4.4548136.182143-1.5181677.265063-3.0246895.27205-4.5177019z"/><path d="m107.299565 72.4218634 6.497982-.5152174c-.23851-3.0545031-.839907-6.0237578-1.754348-8.8663044l-6.206367 1.9919255c.762112 2.3687888 1.26382 4.843323 1.462733 7.3895963"/><path d="m104.905761 62.5000621 6.020031-2.4973602c-1.165062-2.8006212-2.643634-5.4484472-4.405901-7.8908385l-5.285869 3.8114906c1.468789 2.0357143 2.700931 4.2423913 3.671739 6.5767081"/><path d="m99.5668323 53.8024379 4.9532607-4.2354037c-1.956522-2.2891305-4.179969-4.3518634-6.625621-6.1458075l-3.8496894 5.2588509c2.0380435 1.4948758 3.8916149 3.2138199 5.5220497 5.1223603"/><path d="m95.2068634 41.6174068c-2.5458075-1.5600931-5.2886646-2.8462733-8.2006212-3.8007764l-2.0366459 6.1919255c2.4270186.7956522 4.713354 1.8675466 6.8347826 3.1681677z"/></g></g></svg>