<svg height="105" viewBox="0 0 105 105" width="105" xmlns="http://www.w3.org/2000/svg"><g fill="none" fill-rule="evenodd"><path d="m52.3425431 104.656348c-28.89.110611-52.47299996-23.5273895-52.3425431-52.5753895.13154314-28.716 23.5995431-52.25399997 52.6855431-52.0809585 28.67.17095853 52.2169999 23.6349585 51.9929999 52.7699585-.22 28.589-23.5289999 51.9790005-52.3359999 51.8863895" fill="#0090ff"/><path d="m58.8435431 48.0990585c4.564.645 9.025 1.274 13.624 1.924.387-1.384.716-2.564 1.093-3.913-4.73-.7-9.244-1.368-14.091-2.085 1.63-5.768 3.038-11.283 4.799-16.685.58-1.778 1.876-3.447 3.197-4.828 1.733-1.81 4.131-1.409 5.599.58.615.833 1.194 1.714 1.931 2.427.941.909 2.328 1.351 3.273.466.621-.581.601-1.948.659-2.976.023-.413-.464-.899-.801-1.28-1.641-1.858-3.858-2.516-6.199-2.614-5.223-.219-8.971 2.444-11.914 6.469-2.916 3.989-4.195 8.679-5.587 13.314-.406 1.353-.754 2.724-1.162 4.209-5.085-.736-9.963-1.442-14.983-2.167-.178 1.355-.344 2.626-.521 3.976 4.97.765 9.725 1.496 14.639 2.252-.658 2.772-1.271 5.359-1.901 8.013-4.82-.674-9.39-1.311-13.991-1.955-.195 1.486-.342 2.609-.516 3.931 4.621.706 9.076 1.386 13.561 2.071 0 .506.055.8-.009 1.067-1.431 6.099-2.762 12.225-4.367 18.277-.767 2.886-2.001 5.672-4.4 7.7-1.975 1.669-4.145 1.39-5.63-.681-.671-.933-1.231-2.041-2.117-2.695-.647-.479-2.087-.767-2.562-.383-.704.57-1.214 1.831-1.154 2.757.051.821.841 1.781 1.566 2.341 2.443 1.881 5.318 2.154 8.231 1.581 4.879-.961 8.32-4.005 10.453-8.31 1.676-3.384 2.931-6.998 4.117-10.595 1.074-3.257 1.803-6.628 2.713-10.064 4.792.695 9.489 1.376 14.283 2.071.396-1.368.753-2.606 1.138-3.939-5.016-.737-9.802-1.442-14.629-2.152.58-2.833 1.096-5.356 1.658-8.104" fill="#fff"/></g></svg>