<svg height="170" viewBox="0 0 150 170" width="150" xmlns="http://www.w3.org/2000/svg" xmlns:xlink="http://www.w3.org/1999/xlink"><mask id="a" fill="#fff"><path d="m0 .64765625h149.813281v168.88343775h-149.813281z" fill="#fff" fill-rule="evenodd"/></mask><g fill="none" fill-rule="evenodd"><path d="m68.2720312 2.42523437-61.63749995 35.58593753c-4.1046875 2.3703125-6.63515625 6.7507812-6.63515625 11.4921875v71.1718746c0 4.740625 2.53046875 9.121875 6.63515625 11.492188l61.63749995 35.585937c4.1054688 2.370313 9.1632813 2.370313 13.2695313 0l61.6367185-35.585937c4.10625-2.370313 6.635156-6.751563 6.635156-11.492188v-71.1718746c0-4.7414063-2.528906-9.121875-6.635156-11.4921875l-61.6367185-35.58593753c-4.10625-2.37031249-9.1640625-2.37031249-13.2695313 0" fill="#1d74f2" mask="url(#a)" transform="translate(0 .133594)"/><path d="m76.5713281 121.865391v-29.6609379l21.396875-13.5164062v29.6617191zm-2.9375.371875-27.4023437-14.942188v-20.5820311l27.4023437 15.0617191zm62.3109379-.250782c0 .201563.026562.394532.06875.582813l-59.3210941 34.249219c-.1007813-.092969-.203125-.183594-.3171875-.260157v-31.21875l49.3437496-31.1703121v-7.0210938c1.833594-.6140625 3.155469-2.3421875 3.155469-4.3820312 0-2.5539063-2.070312-4.6242188-4.624219-4.6242188-2.553125 0-4.624218 2.0703125-4.624218 4.6242188 0 2.0398437 1.322656 3.7679687 3.155468 4.3820312v5.403125l-22.072656 13.9429689v-29.6617189l6.609375-4.175v-7.0210937c1.833594-.6140625 3.155469-2.3421875 3.155469-4.3828125 0-2.5539063-2.069531-4.6234375-4.623438-4.6234375-2.553906 0-4.624218 2.0695312-4.624218 4.6234375 0 2.040625 1.321875 3.7679687 3.155468 4.3828125v5.4023437l-28.0062496 17.6914063v-13.6632813l13.66875-8.6351562v-12.7265625c1.8328125-.6140625 3.1554687-2.3421875 3.1554687-4.3820313 0-2.5539062-2.0703125-4.6242187-4.625-4.6242187-2.553125 0-4.6242187 2.0703125-4.6242187 4.6242187 0 2.0398438 1.3234375 3.7679688 3.15625 4.3820313v11.1085937l-10.73125 6.7789063v-34.4476563c1.8335937-.6148437 3.1554687-2.3421875 3.1554687-4.3828125 0-2.5539062-2.0695312-4.6242187-4.6242187-4.6242187-2.553125 0-4.6242188 2.0703125-4.6242188 4.6242187 0 2.040625 1.3226563 3.7679688 3.1554688 4.3828125v26.2390625l-11.1164063-7.0226562v-7.628125c1.8328125-.6148438 3.15625-2.3429688 3.15625-4.3828125 0-2.5539063-2.0710937-4.6242188-4.625-4.6242188-2.5539062 0-4.6242187 2.0703125-4.6242187 4.6242188 0 2.0398437 1.321875 3.7679687 3.1554687 4.3820312v9.2476563l14.0539063 8.878125v31.56875l-11.8203125-6.48125v-13.715625c1.8328125-.6140625 3.1554687-2.3421875 3.1554687-4.3820313 0-2.5539062-2.0703125-4.6242187-4.6242187-4.6242187-2.5539063 0-4.6242188 2.0703125-4.6242188 4.6242187 0 2.0398438 1.3226563 3.7679688 3.15625 4.3820313v12.1054687l-17.6960937-9.7023437v-10.90625c1.8335937-.6140625 3.15625-2.3421875 3.15625-4.3828125 0-2.5539063-2.0703125-4.6242188-4.6242188-4.6242188-2.5539062 0-4.6242187 2.0703125-4.6242187 4.6242188 0 2.040625 1.3226562 3.7679687 3.1546875 4.3828125v12.5953125l5.3578125 2.9445312v20.5937499l-16.04375-8.7484374v-5.403125c1.8328125-.6140625 3.1554687-2.3421875 3.1554687-4.3820312 0-2.5539063-2.0710937-4.6242188-4.6242187-4.6242188-2.5546875 0-4.6242188 2.0703125-4.6242188 4.6242188 0 2.0398437 1.321875 3.7679687 3.1554688 4.3820312v7.021875l49.0140625 26.8429684v30.984375c-.1132813.076563-.2164063.167188-.3171875.260157l-59.3210938-34.249219c.0421875-.188281.0695313-.38125.0695313-.582813 0-1.182812-.7851563-2.173437-1.8585938-2.508593v-68.5109379c1.0734375-.334375 1.8585938-1.3242187 1.8585938-2.5078125 0-.2007812-.0265625-.3945312-.0695313-.5828125l59.321875-34.2484375c.4703125.434375 1.09375.70625 1.7851563.70625.6914062 0 1.315625-.271875 1.7859375-.70625l59.3210941 34.2492188c-.042188.1875-.06875.38125-.06875.5820312 0 1.1835938.784375 2.1734375 1.857812 2.5078125v68.5117189c-1.073437.334375-1.857812 1.325-1.857812 2.507812zm3.420312-2.508593v-68.5109379c1.074219-.334375 1.858594-1.3242187 1.858594-2.5078125 0-1.4585937-1.182031-2.6398437-2.639844-2.6398437-.691406 0-1.315625.271875-1.785937.70625l-59.3210941-34.2484375c.0429687-.1882813.0695312-.3820313.0695312-.5828125 0-1.4578125-1.1820312-2.63906253-2.6398437-2.63906253s-2.6398438 1.18125003-2.6398438 2.63906253c0 .2007812.0265625.3945312.0695313.5820312l-59.321875 34.2492188c-.4695313-.4351563-1.09375-.70625-1.7851563-.70625-1.45781247 0-2.63984372 1.18125-2.63984372 2.6398437 0 1.1835938.78515625 2.1734375 1.85859372 2.5078125v68.5109379c-1.07343747.335156-1.85859372 1.325781-1.85859372 2.508593 0 1.457813 1.18203125 2.639844 2.63984372 2.639844.6914063 0 1.315625-.271094 1.7851563-.70625l59.321875 34.249219c-.0429688.188281-.0695313.38125-.0695313.582031 0 1.457813 1.1820313 2.639844 2.6398438 2.639844s2.6398437-1.182031 2.6398437-2.639844c0-.200781-.0265625-.394531-.0695312-.582031l59.3218751-34.249219c.470312.435156 1.094531.70625 1.785156.70625 1.457813 0 2.639844-1.182031 2.639844-2.639844 0-1.182812-.784375-2.173437-1.858594-2.508593z" fill="#fff"/></g></svg>