<svg height="127" viewBox="0 0 127 127" width="127" xmlns="http://www.w3.org/2000/svg"><g fill="none" fill-rule="evenodd" transform="translate(17.9 12.6)"><path d="m-2 77.9783446v-53.532408l46.8105842-26.74942774 46.8106618 26.74738224v53.5344535l-46.810623 26.7494494z" stroke="#fff" stroke-width="4"/><g fill="#fff"><path d="m6.50175081 32.7676588c-.44625778.3260552-.92785316.6012717-1.43628965.8208715v35.4742632c2.98110239 1.2879751 4.76632662 4.3480389 4.40252321 7.547431l31.03915003 17.7371316c.4464509-.325864.9282394-.6012717 1.4366759-.8208715v-35.4742632c-2.9811024-1.2875929-4.7665198-4.3480389-4.4025233-7.5472398l-31.03934309-17.7380873z"/><path d="m83.3196885 32.5706114-31.0739083 17.9349435c.3636103 3.199201-1.4216139 6.2594558-4.4027163 7.5472398l.0347583 35.277407c.5084365.2194087.9900319.4946252 1.4364827.8206803l31.0410811-17.7373227c-.3638034-3.1990098 1.4214208-6.2596469 4.4025232-7.5472398v-35.4742632c-.5084365-.2195998-.990225-.4948164-1.4366758-.8206804z"/><path d="m40.4914932 8.29211821-31.03915005 17.73751389c.06217871.5454638.06217871 1.096088 0 1.6415518l31.04108105 17.7373228c2.617299-1.911417 6.1875543-1.911417 8.8048533 0l31.0410811-17.7375139c-.0619857-.5454638-.0621788-1.0958969 0-1.6413607l-31.0393432-17.73751389c-2.617299 1.91160809-6.1877474 1.91160809-8.8052395 0z"/></g></g></svg>