<svg height="127" viewBox="0 0 127 127" width="127" xmlns="http://www.w3.org/2000/svg"><g fill="#fff" fill-rule="evenodd"><path d="m46.7120916 10.8119059-.5564357.9898515 1.1446783-.6602723z"/><path d="m46.6037995 12.3118069 1.3743812-.790594-.6778465-.379703-1.1446783.6601485-.1107673.1970297z"/><g transform="translate(12 1)"><path d="m34.969186 31.0675.0382559.0223256.0183721-.0106977-.0375582-.0225581z"/><path d="m.063 95.1663372 51.0946512 29.7372098 51.2279068-29.3429075v-21.734186l-51.2131394 29.3556975-51.1094186-29.6931394zm3.77918605-2.1730232v-14.3670931l14.75337205 8.5767442v14.3768609zm30.99441865 18.038721v-14.387442l15.2846511 8.885581v14.397559zm17.3776744-5.498372 15.171279-8.6902328v14.4097678l-15.171279 8.690116z"/><path d="m51.2351163-.0005-51.2351163 29.4693023.06313953 18.5811628 51.09988377 29.6876744 51.2255817-29.3629069-.063024-18.5520931zm-31.3961628 39.8034884 15.1302325-8.7354651-14.9853488-8.7333721 31.2373256-17.96697678 14.9530232 8.72848838-31.148372 17.9836046 31.071279 18.3893024-14.9255814 8.549186zm46.9453488-8.0570931 15.5536047-9.2148837 15.2481395 8.9009303-15.784186 9.0410465zm16.1286047 10.502907 15.6453488-8.9616279.0488372 14.3268605-15.694186 8.9895349zm-64.3822093 13.5595349v-14.3448837l31.6598837 18.4051163v14.3448837zm33.752907 3.9845349 14.8694186-8.517093v14.3548837l-14.8694186 8.517093z"/><path d="m.063 70.3938372 51.1 29.6877908 51.225581-29.3630233v-19.2272094l-51.2187205 29.3590698-51.1068605-29.4695349zm67.3274419 4.1137209 31.219186-17.882093v13.3310465l-31.219186 17.8820931zm-48.8731396 3.6368605v-13.1669767l16.6722093 9.6124418v13.2467442z"/></g></g></svg>