<svg enable-background="new 0 0 746 745" viewBox="0 0 746 745" xmlns="http://www.w3.org/2000/svg" xmlns:xlink="http://www.w3.org/1999/xlink"><linearGradient id="a" gradientTransform="matrix(1 0 0 -1 0 745.8898)" gradientUnits="userSpaceOnUse" x1="365.3699" x2="365.3699" y1="41.0807" y2="708.5839"><stop offset=".0106" stop-color="#2d2e82"/><stop offset=".9732" stop-color="#009ee2"/></linearGradient><clipPath id="b"><path d="m67.6 30h605v685h-605z"/></clipPath><path d="m638.6 510v-268.5c7.8-3.4 13.2-11.2 13.2-20.2 0-12.2-9.9-22.1-22.1-22.1-3.2 0-6.3.7-9.1 2l-246.4-142.4c.5-1.8.8-3.7.8-5.7 0-12.2-9.9-22.1-22.1-22.1s-22.1 9.9-22.1 22.1c0 2.1.3 4 .8 5.9l-247.2 142.7c-3.1-1.7-6.7-2.6-10.4-2.6-12.2 0-22.1 9.9-22.1 22.1 0 10 6.7 18.4 15.8 21.2v267.8c-8.3 3.2-14.2 11.2-14.2 20.6 0 12.2 9.9 22.1 22.1 22.1 3.3 0 6.4-.7 9.2-2l246.1 142c0 .5-.1 1-.1 1.5 0 12.2 9.9 22.1 22.1 22.1s22.1-9.9 22.1-22.1c0-.4 0-.8-.1-1.2l246.8-142.4c2.9 1.4 6.1 2.2 9.6 2.2 12.2 0 22.1-9.9 22.1-22.1 0-9.7-6.2-17.9-14.8-20.9z" fill="#ffde52"/><path d="m666.4 510v-268.5c7.8-3.4 13.2-11.2 13.2-20.2 0-12.2-9.9-22.1-22.1-22.1-3.2 0-6.3.7-9.1 2l-246.4-142.4c.5-1.8.8-3.7.8-5.7 0-12.2-9.9-22.1-22.1-22.1s-22.1 9.9-22.1 22.1c0 2.1.3 4 .8 5.9l-247.2 142.7c-3.1-1.7-15.8 8.8-19.6 8.8-12.2 0-13-1.5-13 10.7 0 10 5.8 12.2 14.9 14.9l.8 274.1c-8.3 3.2-14.2 11.2-14.2 20.6 0 0 .1 8.2 12.3 8.2 4.6 3 13.2 8.2 19.1 11.8l246.1 142c0 .5-.1 1-.1 1.5 0 12.2 9.9 22.1 22.1 22.1s22.1-9.9 22.1-22.1c0-.4 0-.8-.1-1.2l246.8-142.4c2.9 1.4 6.1 2.2 9.6 2.2 12.2 0 22.1-9.9 22.1-22.1.1-9.6-6.1-17.8-14.7-20.8z" fill="#ff3956"/><path d="m645.5 516.6v-283.7c5.9-1.3 10.4-6.5 10.4-12.8 0-7.2-5.9-13.1-13.1-13.1-2.2 0-4.2.5-6.1 1.5l-260.1-150.2c1-1.9 1.6-4 1.6-6.4 0-7.2-5.9-13.1-13.1-13.1-7.3 0-13.1 5.9-13.1 13.1 0 2.5.7 4.8 1.9 6.8l-260.8 150.6c-1.5-.6-3.2-1-5-1-7.3 0-13.1 5.9-13.1 13.1 0 6.5 4.7 11.8 10.8 12.9v282.3c-6.9.4-12.4 6.1-12.4 13.1 0 7.2 5.9 13.1 13.1 13.1 2.5 0 4.8-.7 6.7-1.9 101.3 58.5 158.2 91.3 259.5 149.8-.2.8-.2 1.7-.2 2.5 0 7.2 5.9 13.1 13.1 13.1 7.3 0 13.1-5.9 13.1-13.1 0-.9-.1-1.7-.2-2.5l259.3-149.6c1.9 1.1 4.1 1.7 6.5 1.7 7.3 0 13.1-5.9 13.1-13.1 0-6.9-5.2-12.5-11.9-13.1z" fill="url(#a)"/><path d="m176.9 591.2-32-18.5h-36.9l32 18.5z" fill="#fff"/><g clip-path="url(#b)"><g fill="#fff"><path d="m352.7 186.5c-.4-1.3-1-2.9-1-4.2-.2-2.7.6-5 1.3-7.3l-248.6 39.2c1.3 1.3 2.5 2.9 3.3 4.4 1 1.9 1.7 3.8 1.7 6.1z"/><path d="m107.3 530.5 80.1-13.5c-2.5-2.9-3.6-6.9-3.6-10.6l-77.4 13.1c.4 3.7.7 7.3.9 11z"/><path d="m379.8 691.2 152.8-168.6c-1 0-1.7.2-2.7.2h-.2c-3.4 0-6.3-1.3-8.4-3.5l-147 162.2c2.8 2.7 4.8 6 5.5 9.7z"/><path d="m89.4 209.1c-6.1 0-10.7 5-10.7 10.8s5 10.8 10.7 10.8 10.7-4.8 10.7-10.8-4.6-10.8-10.7-10.8zm0 32.9c-12 0-21.8-9.8-21.8-21.9s9.8-22.1 21.8-22.1 21.8 9.8 21.8 22.1c.2 12.1-9.6 21.9-21.8 21.9z"/><path d="m366.6 169.9c-6.1 0-10.7 5-10.7 10.8s5 10.8 10.7 10.8 10.7-5 10.7-10.8-4.6-10.8-10.7-10.8zm0 32.9c-12 0-21.8-9.8-21.8-22.1 0-12.1 9.8-22.1 21.8-22.1s21.8 9.8 21.8 22.1c0 12.1-9.7 22.1-21.8 22.1z"/><path d="m641.6 209.1c-6.1 0-10.7 5-10.7 10.8s5 10.8 10.7 10.8 10.7-5 10.7-10.8-4.8-10.8-10.7-10.8zm0 32.9c-12 0-21.8-9.8-21.8-22.1 0-12.1 9.8-22.1 21.8-22.1s21.8 9.8 21.8 22.1-9.6 22.1-21.8 22.1z"/><path d="m366.6 41.1c-6.1 0-10.7 5-10.7 10.8s5 10.8 10.7 10.8 10.7-5 10.7-10.8-4.6-10.8-10.7-10.8zm0 32.9c-12 0-21.8-9.8-21.8-22.1s9.8-21.9 21.8-21.9 21.8 9.8 21.8 22.1-9.7 21.9-21.8 21.9z"/><path d="m366.6 681.9c-6.1 0-10.7 5-10.7 10.8s5 10.8 10.7 10.8 10.7-5 10.7-10.8-4.6-10.8-10.7-10.8zm0 33.1c-12 0-21.8-9.8-21.8-22.1 0-12.1 9.8-22.1 21.8-22.1s21.8 9.8 21.8 22.1-9.7 22.1-21.8 22.1z"/><path d="m91.1 518.6c-6.1 0-10.7 5-10.7 10.8 0 6.1 5 10.8 10.7 10.8s10.7-5 10.7-10.8c.2-6-4.8-10.8-10.7-10.8zm0 32.8c-12 0-21.8-9.8-21.8-22.1 0-12.1 9.8-22.1 21.8-22.1s21.8 9.8 21.8 22.1-9.8 22.1-21.8 22.1z"/><path d="m198.2 496.5c-6.1 0-10.7 5-10.7 10.8s5 10.8 10.7 10.8 10.7-5 10.7-10.8-4.6-10.8-10.7-10.8zm0 32.8c-12 0-21.8-9.8-21.8-22.1 0-12.1 9.8-22.1 21.8-22.1s21.8 9.8 21.8 22.1c.2 12.3-9.8 22.1-21.8 22.1z"/><path d="m643.1 518.6c-6.1 0-10.7 5-10.7 10.8 0 6.1 5 10.8 10.7 10.8s10.7-5 10.7-10.8c.2-6-4.6-10.8-10.7-10.8zm0 32.8c-12 0-21.8-9.8-21.8-22.1 0-12.1 9.8-22.1 21.8-22.1s21.8 9.8 21.8 22.1c.2 12.3-9.5 22.1-21.8 22.1z"/><path d="m531.4 496.5c-6.1 0-10.7 5-10.7 10.8s5 10.8 10.7 10.8 10.7-5 10.7-10.8-4.5-10.8-10.7-10.8zm0 32.8c-12 0-21.8-9.8-21.8-22.1 0-12.1 9.8-22.1 21.8-22.1s21.8 9.8 21.8 22.1c.2 12.3-9.5 22.1-21.8 22.1z"/><path d="m648.1 391h-8.8v125.1c1.9-.4 3.6-.4 5.5-.4 2.9 0 5.5 1 7.5 2.1v-126.8z"/><path d="m642.9 372.5h5.2 4.2v-138.6c-3.6 2.3-8 3.7-13 3.7v134.9z"/><path d="m544.3 139.6h-15.9l31.7 18.6h16.1z"/></g><path d="m88.8 268.9h-24.5v18.5h24.5z" fill="#00f2d5"/><path d="m106.4 444.5h-19.9v18.5h19.9z" fill="#ff3956"/><path d="m94.3 268.9v-37.3c-2.3 1-4.8 1.3-7.1 1.3-1.3 0-2.9-.2-4-1v36.9h11.1z" fill="#fff"/><path d="m83.2 287.4v229.1c2.5-1.2 5.4-1.7 8.2-1.7 1.1 0 2.1.2 2.9.4v-227.8z" fill="#fff"/><path d="m376.8 120.9h-4.4v18.5h4.4z" fill="#12339e"/><path d="m410.1 121.3h-15.7v18.3h15.7z" fill="#ffde52"/><path d="m372.4 120.9v-55.2c-1 .2-1.5.4-2.5.8-1.3 0-2.7 0-4.2 0-1.5-.2-3.1-.8-4.4-1.3v55.9h11.1z" fill="#fff"/><path d="m361.3 139.6v30.4c2.3-.4 4.8-.6 7.1-.6 1.3 0 2.7.2 4 .4v-30.2z" fill="#fff"/><path d="m163.2 573.2-60-34.8c-2.3 3.7-5.7 6.2-10.1 7.1l47.8 27.9h22.4v-.2z" fill="#fff"/><path d="m194.9 591.2h-22.4l178.6 103.8c0-.2 0-.8 0-1v-.8c.2-2.7 1.3-5.2 2.9-7.5l1.3-1.3z" fill="#fff"/><path d="m561.1 591.4 77.4-45.2c-4-.8-7.5-3.7-9.6-7.5l-90.4 52.5z" fill="#fff"/><path d="m507 609.9-128.9 74.8c.2.2.4.4.4.8 1.3 1.5 2.3 3.5 2.7 5.4.8 1.3 1 2.9 1 4.4l147-85.3h-22.2z" fill="#fff"/><path d="m408.1 502.4-9.2 11.1h116.1c0-.8 0-1.3 0-2.1.8-3.8 2.7-6.9 5.5-9.2h-112.4z" fill="#fff"/><path d="m212.1 513.8h163.3l9.2-11.1h-175.7c2.5 3.1 3.8 6.9 3.4 10.6 0-.1 0 .1-.2.5z" fill="#fff"/><path d="m646.3 372.5h-5.8-4.1-4.3v18.6h8.3 4.1 1.7v-18.6z" fill="#fff"/><path d="m550.4 451.9-13.8 36.7c3.8 1.3 6.9 4.8 8.8 8.8l17.2-45.6h-12.2z" fill="#fff"/><path d="m83.2 268.9h-6.9v18.5h6.9z" fill="#fff"/><path d="m561.1 591.4-31.7 18.5h24.1l31.5-18.5z" fill="#fff"/><path d="m510 446.1h-13.2l23.7 46.5c2.7-2.9 6.5-4.8 10.5-5.2z" fill="#fff"/><path clip-rule="evenodd" d="m483.6 394.6h13.2l-68.5-134.2h-13.2z" fill="#fff" fill-rule="evenodd"/><path d="m476 446.1h21.8l-11.5-22.1h-21.6z" fill="#fff"/><path d="m513.2 424h-21.7l11.4 22.1h21.7z" fill="#12339e"/><path d="m465 424h-21.7l11.4 22.1h21.7z" fill="#00f2d5"/><path clip-rule="evenodd" d="m414.9 260-35.3-69c-2.1 4-5.2 6.7-9 8.5l30.9 60.5zm68.8 134.5 15 29.5v.2h-13.2l-15.1-29.7z" fill="#fff" fill-rule="evenodd"/><path d="m577.7 591.6-31.5 18.4h24.5l31.5-18.5h-24.5z" fill="#00f2d5"/><path d="m539.7 451.9h11.1l10.6-27.6h-11.4z" fill="#fff"/><path d="m360.5 532.2h23.5l15.1-18.6h-23.7z" fill="#fff"/><path d="m401.1 549.7h13.8l14.1-17.5h-13.8z" fill="#ffde52"/><path d="m419.1 549.7h59.3l14.1-17.5h-59.3z" fill="#fff"/><path d="m370.1 549.7h22.4l14.1-17.5h-22.4z" fill="#ff3956"/><path clip-rule="evenodd" d="m289.9 620.6 60.4 66.7c1.5-3.3 4.4-5.6 8-7.1l-54.1-59.6zm-89.6-99c3.8-.8 7.5-2.5 9.6-5.2l44.4 49h-14.3z" fill="#fff" fill-rule="evenodd"/><path clip-rule="evenodd" d="m267.8 565.5h-14.3l50.1 55.9h14.3z" fill="#fff" fill-rule="evenodd"/><path d="m386.5 121.3h-7.8v18.3h7.8z" fill="#fff"/><path clip-rule="evenodd" d="m259 121.1 96.4-55.9c-2.5-3.1-3.6-7.5-3.4-11l-115.1 66.9zm-155.7 90.3c-1.5-3.7-4.2-6.7-7.6-8.5l109-63.2h22.3z" fill="#fff" fill-rule="evenodd"/><path d="m560.7 158.2h-1.7-20.1l-31.7-18.5h8.2 13.4l-146.1-84.7v2.3c-.4 3.7-1.7 6.3-3.8 8.5l250.9 145.3c3.1-3.1 7.8-5 13-5h1.1z" fill="#fff"/><path d="m560.5 139.6h-15.9l31.7 18.6h16.1z" fill="#00f2d5"/><path d="m507.9 139.7h-15.8l31.6 18.5h16z" fill="#fff"/><path d="m243.8 117h22.2l-44.5 26.1h-22.5z" fill="#fff"/><path d="m526.5 577-24.7 14.2h36.7l24.7-14.2z" fill="#13f5e0"/><path d="m546.4 609.9-18 10.6h27.7l18.4-10.6z" fill="#12339e"/><path d="m410.4 609.9-9.2 10.6h44.3l9.4-10.6z" fill="#12339e"/><path d="m319 284.7 42.8-84.2c-3.6-1.3-6.7-4.8-8.4-8.8l-47.4 93z" fill="#fff"/><path d="m344.3 284.7h-21.8l-11.3 22.1h21.6z" fill="#00f2d5"/><path d="m339.7 284.7h-21.8l-11.3 22.1h21.6z" fill="#fff"/><path d="m371.9 284.7h-21.8l-11.3 22.1h21.6z" fill="#ffde52"/><path d="m259.1 395.9-9.9 19.3h38.9l9.8-19.3z" fill="#ff3956"/><path d="m301.6 395.9-9.8 19.3h7.3l9.9-19.3z" fill="#ffde52"/><path clip-rule="evenodd" d="m261.3 395.9 39.2-77.1h-13v.2l-39 76.9z" fill="#fff" fill-rule="evenodd"/><path clip-rule="evenodd" d="m211.7 492.2 39.2-77.1h-13v.2l-39 76.9z" fill="#fff" fill-rule="evenodd"/><path clip-rule="evenodd" d="m111.7 293.3 74.6 199.3c2.7-2.9 6.3-4.4 10.3-5l-72.9-194.3zm-11.4-59.4c.2-.4.6-.6.8-1l15.3 40.7h-11.9l-13.2-35.4h1c2.7-.4 5.2-1.7 7.5-3.7-.1 0 .3-.2.5-.6z" fill="#fff" fill-rule="evenodd"/><path d="m659.4 372.5h-3.1-2.3-2.1v18.5h4.4 1.9 1.1v-18.5z" fill="#fff"/><path d="m599.7 278.5-7.3 18.6h15.3l7.5-18.6z" fill="#ffde52"/><path d="m568.7 278.5-7.3 18.6h25.3l7.5-18.6z" fill="#00f2d5"/><path d="m538.3 278.5-7.3 18.6h25.3l7.5-18.6z" fill="#12339e"/><path d="m640.4 239.1c-3.4 0-6.5-1.7-9-4.2l-16.1 43.1h4l-7.5 19.4h-4l-50.5 135.1h12l72.3-193.2c0-.2-.4-.2-1.2-.2z" fill="#fff"/><path d="m194.3 591.6-31.7-18.5h20.1l31.7 18.5z" fill="#fff"/><path d="m212.7 591.6-31.7-18.4h20l31.7 18.5h-20z" fill="#ff3956"/><path d="m125.2 591.2-32-18.7 46.6.2 32.7 18.5z" fill="#00f2d5"/><path d="m383.5 186.5c.4-1.3 1-2.9 1-4.2.2-2.7-.6-5-1.3-7.3l248.6 39.2c-1.3 1.3-2.5 2.9-3.2 4.4-1 1.9-1.7 3.8-1.7 6.1z" fill="#fff"/><path d="m628.2 530.5-80.1-13.5c2.5-2.9 3.6-6.9 3.6-10.6l77.4 13.1c-.5 3.7-.7 7.3-.9 11z" fill="#fff"/><path d="m135.4 273.6 7.7 19.9h-19.1l-7.7-19.9z" fill="#00f2d5"/><path d="m164.4 273.6 7.7 19.9h-10.1l-7.7-19.9z" fill="#fff"/><path d="m206.1 273.6 7.7 19.9h-36.8l-7.7-19.9z" fill="#fff"/><path d="m146.7 253.5 7.7 19.9h-19.1l-7.7-19.9z" fill="#ffde52"/></g></svg>