<svg height="127" viewBox="0 0 127 127" width="127" xmlns="http://www.w3.org/2000/svg"><path d="m69.8113021 58.4509351c4.3450162.6192427 8.5904084 1.2250236 12.9660177 1.8490176.3679027-1.3295506.6816789-2.4635091 1.0401682-3.7598011-4.5019043-.672298-8.7975007-1.3137131-13.4100111-2.0026404 1.550839-5.5407177 2.8906634-10.8407068 4.5670129-16.0298341.5514617-1.7080646 1.7853866-3.3108104 3.0428448-4.6379854 1.6488941-1.7397394 3.9308316-1.3540985 5.3287046.5574769.5844082.7997891 1.1366544 1.6462987 1.8379442 2.3312666.8950467.8734332 2.2160446 1.2986676 3.1150134.4474069.5898993-.5582687.5718572-1.8719818.626768-2.8586525.0219644-.3967271-.44164-.8647225-.7624762-1.2305667-1.5626055-1.784876-3.6719662-2.4167887-5.8997773-2.5110213-4.9709997-.2106375-8.5370664 2.3486879-11.3383036 6.2153914-2.7753506 3.8310694-3.9928024 8.3376043-5.3177224 12.790292-.3867292 1.3002513-.7177631 2.6179238-1.1052768 4.0432906-4.8399981-.7071403-9.4823172-1.3849815-14.2595601-2.0826193-.1694392 1.3026269-.3278962 2.5236912-.4957665 3.8215669 4.7301765.7340639 9.255614 1.4372449 13.9324485 2.1633901-.6259835 2.6622686-1.2096073 5.1471581-1.8089199 7.6977729-4.5881927-.6469582-8.9371311-1.2606578-13.3158782-1.8775249-.185128 1.4269506-.3255428 2.5062701-.4902753 3.7756385 4.3975737.6778411 8.6374748 1.3319261 12.9056158 1.9891786 0 .4862085.051773.7696981-.0078444 1.0254723-1.3625733 5.8590496-2.6286603 11.7434391-4.1575349 17.5589359-.7295297 2.7731304-1.9038372 5.4488608-4.1873436 7.397654-1.8795196 1.6027459-3.9441671 1.3366774-5.3577289-.6532931-.6377502-.8979812-1.1711698-1.9614632-2.0144433-2.5902084-.6157859-.458493-1.9869879-.7356476-2.4380412-.3674279-.6699123.5479744-1.1546965 1.7595362-1.0982168 2.6488068.0494198.7894948.8009138 1.7120239 1.4912215 2.2489121 2.3242973 1.8070485 5.0612103 2.0699495 7.8326388 1.5188076 4.6431036-.923321 7.9181428-3.8476986 9.9482749-7.9828463 1.5955521-3.2514201 2.7894706-6.7237722 3.9182805-10.1794949 1.0221261-3.1286803 1.7147871-6.3682224 2.5815939-9.6687386 4.5599528.6683387 9.0304795 1.3232156 13.5935701 1.9907624.3757471-1.3152969.7161942-2.5046863 1.082528-3.7851409-4.7725363-.708724-9.3277825-1.3849814-13.9222508-2.0667819.5506773-2.7224507 1.0417371-5.1463662 1.5767255-7.7864624m-6.8076867 54.5500619c-27.598546.105166-50.1277785-22.4806511-50.0031004-50.2360509.1249293-27.4380108 22.5447125-49.9285321 50.3298735-49.7640496 27.3883089.1639325 49.8821085 22.5843605 49.6687215 50.4224547-.208662 27.3167256-22.4764764 49.6654848-49.9954946 49.5776458" fill="#fff" fill-rule="evenodd"/></svg>