<svg height="127" viewBox="0 0 127 127" width="127" xmlns="http://www.w3.org/2000/svg"><g fill="#fff" fill-rule="evenodd" transform="translate(9 1)"><path d="m54.5000879-.00006593-3.2961512 1.9033246-47.60201412 27.48272383-.29205847.1676754-3.30977621 1.9002479v3.8167581 55.3185988 3.8064294l3.29637097 1.9033246 47.90747783 27.6580903 3.2965907 1.902666 3.2959315-1.902885 47.6028931-27.4844822.288762-.1656975 3.309996-1.9006875v-62.9415666l-3.296371-1.9031048-47.9052801-27.65809073zm-47.90747782 90.58932863v-55.3185988l.29865121-.1714113 47.60882661-27.48667941 47.9052801 27.65809071v55.3185988l-.298431.1714113-47.6068491 27.486679z"/><path d="m7.78710504 89.8988268 46.71309276 26.9700282 46.7108952-26.9700282v-53.9376391l-46.7108952-26.97002822-46.71309276 26.97002822zm46.71309276 28.3485702-47.90747784-27.6578706v-55.3188185l.29865121-.1714113 47.60882663-27.48667946 47.9050602 27.65809076v55.3188185l-.298431.1711915z"/><path d="m8.29540544 78.3535732 3.41042536-45.3888307 4.8658831-1.8587137z"/><path d="m100.384978 45.4601641.426331.3571069v.0006592zm-7.7427355 48.0676815-.1672358.9539697-.0010988.0006593zm-46.4797096 18.0663104-.0013186-.000879 1.0609919-.386115zm-29.6609658-80.08775.0224154-.1285584h.0002197zm83.8744009 14.725988-8.477167 48.0786693-45.8758145 16.6978767-37.40062501-31.3812315 8.47694761-48.0788891 45.8758145-16.6976573zm1.468204-5.3631956.002637-.0175807-.061093-.041754-42.7319553-29.9220383-47.1912863 22.0048145-.1558085.0720807-.000879.0002197-.0013186.019119-4.53800399 51.8527943-.01296572.1606432-.00153831.0098891v.0004395.0002198l42.78513712 29.9576388.0094496.007472.0558185-.02681 47.1332702-21.9788835.1441613-.0665867.0134052-.0050544.0065928-.0907601 4.531631-51.7818125z"/><path d="m69.9815381 22.0365036-.3067823-.3656774-.0692237-.0830685 1.1950443 1.1950443-1.1251613-1.1132943zm27.8081855 33.488492.0294476-.0806512.0292278-.0777944-.3997399 1.490619.3711713-1.4137037zm-15.518875 41.242875.3713911-.0654879.0019778-.0004396v.0004396l.1061432-.0193387-1.5701714.4206169 1.464248-.4003992zm-43.042254 7.3080544.0947157.113175.0584556.070103-1.1321935-1.131974 1.0735181 1.062531zm-27.9018025-34.0603024-.1454798.3999597-.0010988.0028568-.0004395-.0006593-.0147238.0410948-.0221956.0593347.4683045-1.7475162-.4320444 1.6464275zm15.0288146-40.8578589-.1070222.019119 1.8231129-.4883025zm42.9714919-6.9702863 27.8716956 33.2135746-14.8292742 40.7438045-42.6985525 7.5275925-27.8692782-33.2133546 14.8270766-40.7438045zm-2.5964415-4.3202238-.1235041-.1224052-45.0196371 12.0625201-.1678951.0443912-12.0625202 45.0196371-.04439112.1667963 32.95689722 32.9546999.1237237.122185 45.0172198-12.0623002.1678952-.0446109 12.0627399-45.0194173.0441714-.1667964z"/><path d="m35.5514268 95.7481712-18.9466613-32.8180101 18.9466613-32.8182298h37.8953004l18.9464415 32.8182298-18.9464415 32.8180101zm36.5073085-70.1221613-.1002097-.1410847-41.1565101 3.6005161-17.3883568 37.2900867-.0723004.156248 23.5978407 33.702317.1004294.141084 41.1587077-3.6005159 17.3861593-37.2900867.0723004-.156248z"/></g></svg>