<svg fill="none" height="217" viewBox="0 0 386 217" width="386" xmlns="http://www.w3.org/2000/svg"><path d="m216.646 47.2963 47.296 70.1817m0 0-9.154-112.9011m9.154 112.9011 57.976-103.7469m-57.976 103.7469 100.696-65.6046m-100.696 65.6046 117.478-13.731m-117.478 13.731 100.696 36.617m-100.696-36.617 62.554 79.336m-62.554-79.336v90.016m0-90.016-47.296 61.028m47.296-61.028-149.518-9.154m45.771-83.9131-45.771 83.9131m0 0-4.577-99.17002m4.577 99.17002-51.8734-74.7589m51.8734 74.7589-109.84978-41.1937m109.84978 41.1937-100.6956 9.154m100.6956-9.154-91.5415 59.502m91.5415-59.502-51.8734 79.336m51.8734-79.336 4.577 103.747m-4.577-103.747 54.925 74.759" stroke="#0071da"/><g fill="#4ef28f"><circle cx="109.849" cy="9.154" r="4.577"/><circle cx="62.554" cy="33.565" r="4.577"/><circle cx="4.577" cy="67.13" r="4.577"/><circle cx="13.731" cy="117.478" r="4.577"/><circle cx="22.888" cy="167.826" r="4.577"/><circle cx="62.554" cy="187.66" r="4.577"/><circle cx="119.005" cy="212.071" r="4.577"/><circle cx="169.354" cy="183.083" r="4.577"/><circle cx="114.427" cy="108.324" r="4.577"/><circle cx="263.942" cy="117.478" r="4.577"/><circle cx="160.198" cy="24.411" r="4.577"/><circle cx="254.79" cy="4.577" r="4.577"/><circle cx="216.647" cy="47.297" r="4.577"/><circle cx="321.923" cy="13.731" r="4.577"/><circle cx="364.64" cy="51.874" r="4.577"/><circle cx="381.423" cy="103.747" r="4.577"/><circle cx="364.64" cy="154.095" r="4.577"/><circle cx="326.497" cy="196.814" r="4.577"/><circle cx="263.942" cy="207.494" r="4.577"/><circle cx="216.647" cy="178.506" r="4.577"/></g></svg>