<svg fill="none" height="156" viewBox="0 0 407 156" width="407" xmlns="http://www.w3.org/2000/svg"><g stroke-miterlimit="10"><g stroke="#0071da"><path d="m223.073 119.881c3.879 3.903 62.873 36.391 68.104 34.939 5.232-1.452 62.782-36.572 64.135-41.836 1.444-5.263-.09-72.963-3.969-76.7745-3.878-3.9022-62.872-36.390899-68.104-34.93889-5.231 1.452-62.781 36.57239-64.135 41.83599-1.443 5.2635.091 72.8724 3.969 76.7744z"/><path d="m173.011 122.967c7.668 7.714 58.994 34.031 69.457 31.218 10.554-2.813 58.813-34.394 61.61-44.921 2.796-10.618-.181-68.426-7.938-76.1398-7.668-7.7138-58.994-34.031445-69.457-31.21818-10.554 2.81326-58.813 34.39438-61.61 44.92148-2.796 10.6178.181 68.4255 7.938 76.1395z"/><path d="m122.947 126.052c11.546 11.617 55.115 31.672 70.9 27.407 15.786-4.265 54.844-32.126 58.994-48.007 4.239-15.8812-.271-63.8882-11.817-75.5042-11.546-11.6161-55.115-31.67194-70.9-27.40667-15.786 4.26527-54.844 32.12567-58.994 48.00697-4.239 15.9721.271 63.8879 11.817 75.5039z"/><path d="m72.8858 129.138c15.4249 15.519 51.2362 29.313 72.2532 23.595 21.018-5.717 50.875-29.947 56.468-51.183 5.683-21.1448-.361-59.26-15.786-74.7783s-51.236-29.31241-72.253-23.59513c-21.0177 5.71728-50.8752 29.94763-56.4679 51.18323-5.6828 21.2356.3609 59.2602 15.7857 74.7782z"/><path d="m22.8217 132.224c19.3036 19.42 47.3571 26.953 73.6064 19.874 26.3399-7.079 46.9059-27.77 53.9419-54.2687 7.036-26.4992-.451-54.7226-19.755-74.0524-19.303-19.32988-47.3567-26.95292-73.606-19.87438-26.3395 7.07858-46.906 27.76968-53.94194 54.26878-7.03591 26.4991.45101 54.7227 19.75464 74.0527z"/></g><path d="m406.548 116.796v-77.5009l-66.751-38.750422-66.66 38.750422v77.5009l66.66 38.75z" stroke="#4ef28f"/></g></svg>