<svg fill="none" height="86" viewBox="0 0 75 86" width="75" xmlns="http://www.w3.org/2000/svg" xmlns:xlink="http://www.w3.org/1999/xlink"><clipPath id="a"><path d="m0 0h74.1385v85.6h-74.1385z"/></clipPath><g clip-path="url(#a)" fill="#1a74fc"><g opacity=".5"><path d="m24.9014 18.1187c.2512.0942.5024.1256.7536.1256 1.2247 0 2.2295-1.0049 2.2295-2.2295 0-1.2247-1.0048-2.2295-2.2295-2.2295-.471 0-.8792.157-1.256.3768l-5.1185-3.5483-.7222 1.0362 5.0556 3.517c-.1256.2826-.1884.5652-.1884.8792 0 .5024.157.9734.4396 1.3503l-15.60642 19.5002c-.34541-.1884-.72223-.314-1.13045-.314-.91063 0-1.72707.5652-2.07248 1.3816l-4.490389-.628-.188408 1.256 4.521787.6281c.18841 1.0362 1.09905 1.8212 2.19809 1.8212 1.22465 0 2.2295-1.0048 2.2295-2.2294 0-.3455-.09421-.6909-.21981-.9735zm.785-3.0459c.5338 0 .9734.4396.9734.9734s-.4396.9734-.9734.9734-.9734-.4396-.9734-.9734.4396-.9734.9734-.9734zm-18.52677 24.6814c-.53382 0-.97344-.4396-.97344-.9734 0-.5339.43962-.9735.97344-.9735.53383 0 .97345.4396.97345.9735 0 .5338-.43962.9734-.97345.9734z" opacity=".5"/><path d="m73.5115 37.0535-2.2923-.0628c-.1884-.8165-.8478-1.4445-1.6642-1.6329l-3.36-11.8383c.5338-.4082.8793-1.0676.8793-1.7899 0-.471-.157-.9106-.3769-1.256l1.3817-1.6643-.9734-.785-1.3817 1.6643c-.2512-.1257-.5652-.1885-.8792-.1885-.6909 0-1.3189.3141-1.7271.8479l-15.1982-8.761c.0628-.1884.0942-.4082.0942-.628 0-.0314 0-.0942 0-.1256l4.1449-.87926-.2512-1.22465-4.3333.91064c-.4083-.56522-1.0677-.91064-1.7899-.91064-1.2247 0-2.2295 1.00485-2.2295 2.22951 0 1.2246 1.0048 2.2295 2.2295 2.2295.5652 0 1.0676-.1884 1.4444-.5338l15.4181 8.8865v.2198c0 1.2247 1.0048 2.2295 2.2295 2.2295h.157l3.2657 11.4929c-.8478.314-1.4444 1.1305-1.4444 2.0725 0 1.2247 1.0048 2.2295 2.2294 2.2295.9735 0 1.8213-.628 2.1039-1.5073l2.3237.0628zm-27.7587-25.1525c-.5338 0-.9735-.4396-.9735-.9734s.4397-.97346.9735-.97346.9734.43966.9734.97346-.4396.9734-.9734.9734zm18.0871 9.8286c0-.5338.4396-.9734.9735-.9734.5338 0 .9734.4396.9734.9734 0 .5339-.4396.9735-.9734.9735-.5339 0-.9735-.4396-.9735-.9735zm5.2126 16.7369c-.5338 0-.9734-.4396-.9734-.9734s.4396-.9734.9734-.9734c.5339 0 .9735.4396.9735.9734-.0314.5338-.4396.9734-.9735.9734z" opacity=".5"/><path d="m67.9525 52.2202-14.5702 18.0872c-.3454-.1884-.7222-.314-1.1304-.314-.5024 0-.9421.157-1.3189.4396l-6.0604-5.0556c-.0314-1.2247-1.0049-2.1981-2.2295-2.1981-1.1933 0-2.1667.942-2.2295 2.1039l-17.8674 4.5531c-.3768-.6908-1.099-1.1618-1.9468-1.1618-1.1933 0-2.1981.9734-2.2295 2.1667l-3.3914.785.2826 1.2247 3.4228-.7851c.3768.6595 1.099 1.0677 1.9155 1.0677 1.1932 0 2.1352-.9106 2.2294-2.0725l17.8674-4.5532c.0628.1256.1256.2198.2198.314l-10.1112 14.319 1.0362.7223 10.1427-14.3504c.2198.0628.4396.0942.6594.0942.7536 0 1.413-.3769 1.8213-.9735l5.715 4.7416c-.0942.2512-.157.5024-.157.7851 0 1.2246 1.0048 2.2294 2.2295 2.2294.4396 0 .8792-.1256 1.2246-.3768l1.1305.9421.8164-.9735-1.1304-.942c.1256-.2826.1884-.5652.1884-.9107 0-.3454-.0942-.6908-.2198-.9734l14.6958-18.2442zm-47.3531 19.6886c-.5339 0-.9735-.4396-.9735-.9734s.4396-.9734.9735-.9734c.5338 0 .9734.4396.9734.9734s-.4396.9734-.9734.9734zm22.0123-5.5266c-.5338 0-.9735-.4396-.9735-.9734 0-.5339.4397-.9735.9735-.9735s.9734.4396.9734.9735c0 .5338-.4396.9734-.9734.9734zm9.6402 6.8141c-.5338 0-.9735-.4396-.9735-.9734 0-.5339.4397-.9735.9735-.9735s.9734.4396.9734.9735c0 .5338-.4396.9734-.9734.9734z" opacity=".5"/></g><path d="m37.085 0-36.770987 21.2273-.314013.1884v42.8l37.085 21.4157 36.7709-21.2273.314-.1884v-42.8zm0 1.44446 35.8289 20.66204v27.6332l-1.4759.5338c-.3768-.6908-1.0991-1.1618-1.9469-1.1618-.628 0-1.1932.2512-1.6015.6594l-9.5146-6.5315c.0628-.1884.0942-.4082.0942-.628 0-1.2247-1.0048-2.2295-2.2294-2.2295-.3141 0-.5967.0628-.8793.1884l-6.7513-9.1692c.1884-.314.2826-.6908.2826-1.0676 0-1.2247-1.0048-2.2295-2.2294-2.2295-.9107 0-1.6957.5652-2.0411 1.3502h-14.8529c-.3454-.8164-1.1304-1.3816-2.041-1.3816-1.2247 0-2.2295 1.0048-2.2295 2.2295 0 .4396.1256.8478.3454 1.1932l-7.0025 9.0436c-.2512-.1256-.5652-.157-.8478-.157-1.2247 0-2.2295 1.0048-2.2295 2.2295 0 .2826.0628.5652.157.8164l-7.03393 3.1402c-.37681-.6595-1.09904-1.0991-1.91548-1.0991-1.22465 0-2.22949 1.0048-2.22949 2.2295v.0942l-3.45415 1.3817v-27.0366zm33.3482 49.95954c0 .5338-.4397.9734-.9735.9734s-.9734-.4396-.9734-.9734c0-.5339.4396-.9735.9734-.9735s.9735.4396.9735.9735zm-22.8288 3.7681c0 .5338-.4396.9735-.9734.9735-.5339 0-.9735-.4397-.9735-.9735s.4396-.9734.9735-.9734c.5338 0 .9734.4396.9734.9734zm-.0314-2.0411c-.2826-.1256-.5966-.1884-.9106-.1884-1.1305 0-2.0725.8479-2.1981 1.9469l-14.5702-.0942c-.0629-.4082-.2513-.7536-.5025-1.0676l16.2031-21.3529c.314.157.6908.2826 1.0677.2826.3768 0 .7536-.0942 1.0676-.2512l6.6885 9.0749c-.2512.3455-.3768.7851-.3768 1.2561 0 .4396.1256.8792.3768 1.2246zm-30.5849-10.4566c0-.5338.4396-.9735.9735-.9735.5338 0 .9734.4397.9734.9735s-.4396.9734-.9734.9734c-.5339 0-.9735-.4396-.9735-.9734zm2.7947-1.2561 6.9711-9.0121c.2826.1256.5966.1884.9107.1884 1.099 0 2.0096-.7851 2.1981-1.8213h14.5702c.0314.2512.1256.471.2512.6908l-16.3601 21.5727c-.1884-.0628-.4082-.0942-.628-.0942-.3141 0-.5967.0628-.8479.1884l-7.1595-8.9807c.314-.3769.5338-.8793.5338-1.4445-.0314-.5024-.1884-.9421-.4396-1.2875zm6.9083-11.0218c0-.5338.4396-.9735.9735-.9735.5338 0 .9734.4397.9734.9735s-.4396.9734-.9734.9734c-.5339 0-.9735-.4396-.9735-.9734zm19.9399.9734c-.5339 0-.9735-.4396-.9735-.9734s.4396-.9735.9735-.9735c.5338 0 .9734.4397.9734.9735s-.4396.9734-.9734.9734zm-18.9664 22.8288c.5338 0 .9734.4396.9734.9734s-.4396.9735-.9734.9735c-.5339 0-.9735-.4397-.9735-.9735s.4396-.9734.9735-.9734zm27.6017-11.5243c0-.5338.4396-.9735.9735-.9735.5338 0 .9734.4397.9734.9735s-.4396.9734-.9734.9734c-.5339 0-.9735-.4396-.9735-.9734zm-47.35317 5.087c0 .5338-.43962.9734-.97344.9734s-.97344-.4396-.97344-.9734.43962-.9734.97344-.9734.97344.4396.97344.9734zm29.17187 36.3941-35.82895-20.662v-12.8746l3.86236-1.5386c.40822.5652 1.06765.942 1.82128.942 1.19325 0 2.16669-.942 2.22949-2.1353l7.50492-3.3599c.3454.2512.785.4082 1.2561.4082.2198 0 .4396-.0314.6594-.0942l7.2537 9.1064c-.2512.3454-.4082.785-.4082 1.256 0 1.2247 1.0048 2.2295 2.2295 2.2295.9106 0 1.727-.5652 2.041-1.3502l14.9157.0942c.3454.7536 1.1304 1.256 2.0097 1.256 1.2246 0 2.2294-1.0048 2.2294-2.2295 0-.4396-.1256-.8478-.3454-1.1932l6.8141-9.2634c.2826.1256.5966.1884.9107.1884.5652 0 1.0676-.2198 1.4444-.5338l9.6088 6.5942c-.0314.157-.0314.2826-.0314.4397 0 1.2246 1.0049 2.2294 2.2295 2.2294 1.1619 0 2.1353-.9106 2.2295-2.0724l1.1933-.4397v12.3722z"/></g></svg>