<svg fill="none" height="90" viewBox="0 0 92 90" width="92" xmlns="http://www.w3.org/2000/svg"><g stroke-miterlimit="10"><path d="m40.2679 87.6734c19.3194 0 34.9808-15.4835 34.9808-34.5833s-15.6614-34.5833-34.9808-34.5833-34.98079 15.4835-34.98079 34.5833 15.66139 34.5833 34.98079 34.5833z" stroke="#1a74fc"/><g stroke="#156ff7"><path d="m29.7796 84.2833c8.3805 0 15.1742-6.7165 15.1742-15.0018 0-8.2852-6.7937-15.0017-15.1742-15.0017-8.3804 0-15.1741 6.7165-15.1741 15.0017 0 8.2853 6.7937 15.0018 15.1741 15.0018z" opacity=".3"/><path d="m32.5989 85.0551c11.4401 0 20.7141-9.1686 20.7141-20.4787s-9.274-20.4787-20.7141-20.4787-20.7141 9.1686-20.7141 20.4787 9.274 20.4787 20.7141 20.4787z" opacity=".3"/><path d="m38.9296 87.6947c17.2039 0 31.1503-13.788 31.1503-30.7963 0-17.0084-13.9464-30.7963-31.1503-30.7963-17.2038 0-31.1503 13.7879-31.1503 30.7963 0 17.0083 13.9465 30.7963 31.1503 30.7963z" opacity=".3"/><path d="m45.5097 89.3637c24.7859 0 44.8788-19.8647 44.8788-44.3689s-20.0929-44.368823-44.8788-44.368823-44.878841 19.864623-44.878841 44.368823 20.092941 44.3689 44.878841 44.3689z"/></g><path d="m35.0253 85.973c13.847 0 25.0722-11.0976 25.0722-24.7873 0-13.6896-11.2252-24.7873-25.0722-24.7873s-25.07218 11.0977-25.07218 24.7873c0 13.6897 11.22518 24.7873 25.07218 24.7873z" stroke="#1a74fc"/></g></svg>