<svg fill="none" height="239" viewBox="0 0 411 239" width="411" xmlns="http://www.w3.org/2000/svg"><g stroke="#0071da" stroke-miterlimit="10"><path d="m284.8 222.203h-168.711c-60.5942 0-110.14369-49.839-110.14369-110.89 0-60.9493 49.54949-110.78883 110.14369-110.78883h168.711c60.595 0 110.144 49.83953 110.144 110.78883.101 61.051-49.549 110.89-110.144 110.89z"/><path d="m255.922 222.203h-110.955c-53.805 0-97.7815-44.234-97.7815-98.354v-24.9707c0-54.1202 43.9765-98.35413 97.7815-98.35413h110.955c53.805 0 97.781 44.23393 97.781 98.35413v24.8687c.102 54.222-43.976 98.456-97.781 98.456z"/><path d="m200.494 222.101c66.259 0 119.973-49.601 119.973-110.788 0-61.1871-53.714-110.78883-119.973-110.78883s-119.9725 49.60173-119.9725 110.78883c0 61.187 53.7135 110.788 119.9725 110.788z"/><path d="m200.496 222.101c26.079 0 47.219-49.601 47.219-110.788 0-61.1871-21.14-110.78883-47.219-110.78883-26.078 0-47.219 49.60173-47.219 110.78883 0 61.187 21.141 110.788 47.219 110.788z"/><path d="m200.495 222.101c46.337 0 83.9-49.601 83.9-110.788 0-61.1871-37.563-110.78883-83.9-110.78883-46.336 0-83.899 49.60173-83.899 110.78883 0 61.187 37.563 110.788 83.899 110.788z"/><path d="m200.494.52417v221.67883"/><path d="m5.94531 111.313h389.09969"/></g><g fill="#4ef28f"><ellipse cx="27.354" cy="45.801" rx="4.291" ry="4.326"/><ellipse cx="238.862" cy="177.287" rx="4.291" ry="4.326"/><ellipse cx="311.291" cy="67.326" rx="4.291" ry="4.326"/><ellipse cx="61.43" cy="173.734" rx="4.291" ry="4.326"/></g><g stroke="#4ef28f" stroke-linecap="round"><path d="m6.99935 127.5c-22.56075 30.081 26.77855 43.542 54.00025 45.5 101.0534-119.8541 210.4824-120.8838 252.0004-105.9999-7.991 193.1769-68.103 184.3759-96.5 154.9999"/><path d="m312.5 68c-83.663-87.184-224.6134-50.3969-284.7363-21.7699 161.2153 22.7437 208.1783 97.1339 211.5073 131.4869 203.869-3.554 180.369-74.035 152.755-95.3576"/></g></svg>