<svg fill="none" height="156" viewBox="0 0 399 156" width="399" xmlns="http://www.w3.org/2000/svg"><path d="m3.75781 77.8284v-37.3437c0-21.7782 17.56419-39.4847 39.16719-39.4847s39.1671 17.7065 39.1671 39.4847v74.6873c0 21.778 17.5642 39.485 39.1669 39.485 21.603 0 39.167-17.707 39.167-39.485v-74.6873c0-21.7782 17.565-39.4847 39.168-39.4847s39.167 17.7065 39.167 39.4847v74.6873c0 21.778 17.564 39.485 39.167 39.485s39.167-17.707 39.167-39.485v-74.6873c0-21.7782 17.564-39.4847 39.167-39.4847s39.167 17.7065 39.167 39.4847v37.3437" stroke="#0681f3" stroke-miterlimit="10"/><circle cx="3.664" cy="76.486" fill="#4ef28f" r="3.664"/><path d="m3.75781 76.5789h391.67119" stroke="#4ef28f"/><circle cx="395.336" cy="76.486" fill="#4ef28f" r="3.664"/></svg>